/* XPM */
static char *result[] = {
/* columns rows colors chars-per-pixel */
"64 64 6 1 ",
"  c black",
". c #653705",
"X c #7F5426",
"o c #A26B31",
"O c #B48E67",
"+ c None",
/* pixels */
"++++++++++++++++++++++++++++++++++++++++++++++++++++++++++++++++",
"++++++++++++++++++++++++++++++++++++++++++++++++++++++++++++++++",
"++++++++++++++++++++++++++++++++++++++++++++++++++++++++++++++++",
"++++++++++++++++++++++++++++++++++++++++++++++++++++++++++++++++",
"++++++++++++++++++++++++++++++++++++++++++++++++++++++++++++++++",
"++++++++++++++++++++++++++++++++++++++++++++++++++++++++++++++++",
"++++++++++++++++++++++++++++++++++++++++++++++++++++++++++++++++",
"++++++++++++++++++++++++++++++++++++++++++++++++++++++++++++++++",
"++++++++++++++++++++++++++++++++++++++++++++++++++++++++++++++++",
"++++++++++++++++++++++++++++++++++++++++++++++++++++++++++++++++",
"++++++++++++++++++++++++++++++++++++++++++++++++++++++++++++++++",
"++++++++++++++++++++++++++++++++++++++++++++++++++++++++++++++++",
"++++++++++++++++++++++++++++++++++++++++++++++++++++++++++++++++",
"++++++++++++++++++++++++++++++++++++++++++++++++++++++++++++++++",
"++++++++++++++++++++++++++++++++++++++++++++++++++++++++++++++++",
"++++++++++++++++++++++++++++++++++++++++++++++++++++++++++++++++",
"++++++++++++++++++++++++++++++++++++++++++++++++++++++++++++++++",
"++++++++++++++++++++++++++++++++++++++++++++++++++++++++++++++++",
"++++++++++++++++++++++++++++++++++++++++++++++++++++++++++++++++",
"+++++++++++++++++++++++++++++++         ++++++++++++++++++++++++",
"+++++++++++++++++++++++++++++++         ++++++++++++++++++++++++",
"++++++++++++++++++++++++++++++ ..OOOO...  ++++++++++++++++++++++",
"++++++++++++++++++++++++++++++ ..OOOO...  ++++++++++++++++++++++",
"++++++++++++++++++++++++++    oooooooo....  ++++++++++++++++++++",
"++++++++++++++++++++++++++    oooooooo....  ++++++++++++++++++++",
"++++++++++++++++++++++++  ..OO...ooooooo..  ++++++++++++++++++++",
"+++++++++++++++++++++++ ..ooooOOO..ooooo..  ++++++++++++++++++++",
"+++++++++++++++++++++++ ..ooooOOO..ooooo..  ++++++++++++++++++++",
"+++++++++++++++++++++++ oooooooooOOooooo..  ++++++++++++++++++++",
"+++++++++++++++++++++++ oooooooooOOooooo..  ++++++++++++++++++++",
"++++++++++++++++++++   O....oooooooooooo..  ++++++++++++++++++++",
"++++++++++++++++++++   O....oooooooooooo..  ++++++++++++++++++++",
"+++++++++++++++++++ ...oOOOO..oooooooX..  ++++++++++++++++++++++",
"+++++++++++++++++++ OOOoooooOOoooooXXX  ++++++++++++++++++++++++",
"+++++++++++++++++++ OOOoooooOOoooooXXX  ++++++++++++++++++++++++",
"+++++++++++++++++++ OOOooooooooXXXX.. ++++++++++++++++++++++++++",
"+++++++++++++++++++ OOOooooooooXXXX.. ++++++++++++++++++++++++++",
"+++++++++++++++++++ OOOoooooooXXXXX  +++++++++++++++++++++++++++",
"+++++++++++++++++++ OOOoooooooXXXXX  +++++++++++++++++++++++++++",
"+++++++++++++++++++ OOOoooooXXXXX  +++++++++++++++++++++++++++++",
"+++++++++++++++++++ OOOoooooXXX  +++++++++++++++++++++++++++++++",
"+++++++++++++++++++ OOOoooooXXX  +++++++++++++++++++++++++++++++",
"++++++++++++++++++++   .XXXX.. +++++++++++++++++++++++++++++++++",
"++++++++++++++++++++   .XXXX.. +++++++++++++++++++++++++++++++++",
"+++++++++++++++++++++++       ++++++++++++++++++++++++++++++++++",
"+++++++++++++++++++++++       ++++++++++++++++++++++++++++++++++",
"++++++++++++++++++++++++++++++++++++++++++++++++++++++++++++++++",
"++++++++++++++++++++++++++++++++++++++++++++++++++++++++++++++++",
"++++++++++++++++++++++++++++++++++++++++++++++++++++++++++++++++",
"++++++++++++++++++++++++++++++++++++++++++++++++++++++++++++++++",
"++++++++++++++++++++++++++++++++++++++++++++++++++++++++++++++++",
"++++++++++++++++++++++++++++++++++++++++++++++++++++++++++++++++",
"++++++++++++++++++++++++++++++++++++++++++++++++++++++++++++++++",
"++++++++++++++++++++++++++++++++++++++++++++++++++++++++++++++++",
"++++++++++++++++++++++++++++++++++++++++++++++++++++++++++++++++",
"++++++++++++++++++++++++++++++++++++++++++++++++++++++++++++++++",
"++++++++++++++++++++++++++++++++++++++++++++++++++++++++++++++++",
"++++++++++++++++++++++++++++++++++++++++++++++++++++++++++++++++",
"++++++++++++++++++++++++++++++++++++++++++++++++++++++++++++++++",
"++++++++++++++++++++++++++++++++++++++++++++++++++++++++++++++++",
"++++++++++++++++++++++++++++++++++++++++++++++++++++++++++++++++",
"++++++++++++++++++++++++++++++++++++++++++++++++++++++++++++++++",
"++++++++++++++++++++++++++++++++++++++++++++++++++++++++++++++++",
"++++++++++++++++++++++++++++++++++++++++++++++++++++++++++++++++"
};
