/* XPM */
static char *result[] = {
/* columns rows colors chars-per-pixel */
"64 64 65 1 ",
"  c #020200",
". c #0E0D0A",
"X c #1F1E1C",
"o c #1E241E",
"O c #20221F",
"+ c #1F2420",
"@ c #252625",
"# c #2B2623",
"$ c #252924",
"% c #292927",
"& c #262629",
"* c #292728",
"= c #262C2A",
"- c #292A29",
"; c #312D2A",
": c #2F312E",
"> c #32312F",
", c #2E2F31",
"< c #343433",
"1 c #383733",
"2 c #393936",
"3 c #3C3C3B",
"4 c #41403E",
"5 c #3F3F41",
"6 c #404040",
"7 c #494945",
"8 c #4E4D4A",
"9 c #514D42",
"0 c #504F4B",
"q c #5A564B",
"w c #5A5750",
"e c #5E5A54",
"r c #5F5E59",
"t c #625D56",
"y c #635E58",
"u c #646056",
"i c #686157",
"p c #636059",
"a c #68645E",
"s c #736C62",
"d c #72716C",
"f c #82373B",
"g c #CA6263",
"h c #8B8577",
"j c #8F867F",
"k c #8F897D",
"l c #948D7F",
"z c #958F81",
"x c #969083",
"c c #999284",
"v c #9B968B",
"b c #A0998F",
"n c #ACA99F",
"m c #CECDBE",
"M c #D2CFBE",
"N c #D1D0BE",
"B c #D2CDC3",
"V c #D5D1C4",
"C c #DCD6C5",
"Z c #DED9C6",
"A c #DED6C9",
"S c #DED8C9",
"D c #E1DACA",
"F c #E0DED1",
"G c None",
/* pixels */
"GGGGGGGGGGGGGGGGGGGGGGGGGGGGGGGGG:**=&*==GGGGGGGGGGGGGGGGGGGGGGG",
"GGGGGGGGGGGGGGGGGGGGGGGGGGGGGGGGG-#=**&#*&*GGGGGGGGGGGGGGGGGGGGG",
"GGGGGGGGGGGGGGGGGGGGGGGGGGGGGGGGG%%**==*=#**GGGGGGGGGGGGGGGGGGGG",
"GGGGGGGGGGGGGGGGGGGGGGGGGGGGGGGGG==%yyy**%&==GGGGGGGGGGGGGGGGGGG",
"GGGGGGGGGGGGGGGGGGGGGGGGGGGGGGGGG#**ppp3%*=***GGGGGGGGGGGGGGGGGG",
"GGGGGGGGGGGGGGGGGGGGGGG=:==;=:====&=pypyy3#&=#=GGGGGGGGGGGGGGGGG",
"GGGGGGGGGGGGGGGGGGGGGG==%=========&*%pppppy****GGGGGGGGGGGGGGGGG",
"GGGGGGGGGGGGGGGGGG:==:%:=======;-=#=*pppppy=&*=GGGGGGGGGGGGGGGGG",
"GGGGGGGGGGGGGGGGGG--=====656666644***=*pppp%#**GGGGGGGGGGGGGGGGG",
"GGGGGGGGGGGGGG===-:-==8644565656*=*==**ypp=*=*GGGGGGGGGGGGGGGGGG",
"GGGGGGGGGGGGGG=-==--444666***=#***#**yppyy#**=GGGGGGGGGGGGGGGGGG",
"GGGGGGGGGGGG:=%:==32urr%#=*=&#=*=*=*=ppppy=*=GGGGGGGGGGGGGGGGGGG",
"GGGGGGGGGGGG%==23233r#***=**@%=*#*@=*ypp=***3GGGGGGGGGGGGGGGGGGG",
"GGGGGGGGGGGG===2232@&=***&=*yytt&*%ytypp**=*=GGGGGGGGGGGGGGGGGGG",
"GGGGGGGGG:==424323=**=&=*%yyyyyy=*=ypppy=****GGGGGGGGGGGGGGGGGGG",
"GGGGGGGGG===32433&#&**#=ppyyy=%&***ypp=#**=#*3GGGGGGGGGGGGGGGGGG",
"GGGGGGG:====4466=#***=yyppppp==%=&=yyy*==y-***GGGGGGGGGGGGGGGGGG",
"GGGGGGG===444463*=*=ppypppppr%%%**#**=ypyyyp-=6GGGGGGGGGGGGGGGGG",
"GGGGGGG=%=6666=-**=ypppppppppppp**=*=*ppyyyy-;->GGGGGGGGGGGGGGGG",
"GGGGGGG::=6464=*=*typpppppppppgppyp***ppyyya---*GGGGGGGGGGGGGGGG",
"GGGGGGG===4463--tttppppppppppgfgpppppppppppppp-*GGGGGGGGGGGGGGGG",
"GGGGGGG=;=4466=%yyiyypppppppppgpppppyppppppppp-=GGGGGGGGGGGGGGGG",
"GGGGGGG:-=5563*#yrpppppppppppppppppppppppppppp*=GGGGGGGGGGGGGGGG",
"GGGGGGG%-%4555=%ytyppppppppppppppppppppppppppi*=GGGGGGGGGGGGGGGG",
"GGGGGGG%==4463=#ytyyupppppppppppppypppppppppxll%GGGGGGGGGGGGGGGG",
"GGGGGGG:==4463*%yzzzxpppppppppppppuppppppppplxx%GGGGGGGGGGGGGGGG",
"GGGGGGG-%=4436--yzzzxlxpppppppppppppppppppuxxxl%GGGGGGGGGGGGGGGG",
"GGGGGGG====3%#--ZZSzlxlupppppppppppppppppuxlllx=-#=GGGGGGGGGGGGG",
"GGGGGGG=:=:4%=-;ZZZZzzlxxuupppppppppppppzzxlzzc-=*=GGGGGGGGGGGGG",
"GGGGGGG:===6==-*ZZZZZzzzzzxlpppppppppzzzlzlDDD--**=GGGGGGGGGGGGG",
"GGGGGGGGGo=%*--%ZZZZZZzzxxlxxlxpppxlxzzzzzZZCZ23***GGGGGGGGGGGGG",
"GGGGGGGGGo>$***%ZZZZZZxzllxllxlllxlxlzzzzzZZZZ22=%%GGGGGGGGGGGGG",
"GGGGGGGGGGGG--62ZZZZZZZDDxxlzzzzlxclxxlcDSZZZZ*%23=GGGGGGGGGGGGG",
"GGGGGGGGGGGG-=37SSZZZZZZZclzzzzzxllllZZZZZZZZV-#32*GGGGGGGGGGGGG",
"GGGGGGGGGGGG;-44==DSZZZZZZzzzzzzlxlxlZZZZZZZZ3-=32*GGGGGGGGGGGGG",
"GGGGGGGGGGGG--33-=NZZZZZZZZZZZzzxlxlxZZZZZZZZ%*%23-GGGGGGGGGGGGG",
"GGGGGGGGGGGG--44-,DCZZZZZZZZZZZZZZxlZZZZZZZZD-<<23-GGGGGGGGGGGGG",
"GGGGGGGGGGGG*>44--DSZZZZZZZZZZZZZZZZZZZZZZZZ*-2232-GGGGGGGGGGGGG",
"GGGGGGGGGGGG--66*=VBSZZZZZZZZZZZZZZZZZZZZZVA-*2332=GGGGGGGGGGGGG",
"GGGGGGGGGGGG--6665*=:ZZZZZZZZZZZZZZZZZZZS ---;;*33-GGGGGGGGGGGGG",
"GGGGGGGGGGGG;,6655==;DCDZZZZZZZZZZ===ZZZZ ==**ee22=GGGGGGGGGGGGG",
"GGGGGGGGGGGG-=3644#%>DCCZ============ZZZD *=qett42-GGGGGGGGGGGGG",
"GGGGGGGGGGGG;>4444=#>DDMD=============ZZC -%tttt22;GGGGGGGGGGGGG",
"GGGGGGGGGGGG--ya45544-;;-============%:>;7tttttt32*GGGGGGGGGGGGG",
"GGGGGGGGGGGG;*tt45347*--*===GGGGGGG=====%2ytyyye32*GGGGGGGGGGGGG",
"GGGGGGGGGGGG*=tt89007=--====GGGGGGG====224yuyyyt*@GGGGGGGGGGGGGG",
"GGGGGGGGGGGG-;ttyyttt56=====GGGGGGG====duttttyyt-=GGGGGGGGGGGGGG",
"GGGGGGGGGGGG--ttttttt35=====GGGGGGGG===dtq99iyyt*=GGGGGGGGGGGGGG",
"GGGGGGGGGGGG;-yyyyypp33===GGGGGGGGGG===dyyxltttt--GGGGGGGGGGGGGG",
"GGGGGGGGGGGG--aippppa3232GGGGGGGGGGG====isxxtytt--GGGGGGGGGGGGGG",
"GGGGGGGGGGGG**34pppypuu#=GGGGGGGGGGG====xlxxlxzl--GGGGGGGGGGGGGG",
"GGGGGGGGGGGG-=33yypyppy=*GGGGGGGGGGGG=:-xlxxzxll--GGGGGGGGGGGGGG",
"GGGGGGGGGGGGGG-*yyvxbpy--GGGGGGGGGGGG--nlxlxcl--GGGGGGGGGGGGGGGG",
"GGGGGGGGGGGGGG--yyczcyy&-GGGGGGGGGGGG--nlllxlh-%GGGGGGGGGGGGGGGG",
"GGGGGGGGGGGGGG;%yyzxbxc-*GGGGGGGGGGGG*;X #lxll=%GGGGGGGGGGGGGGGG",
"GGGGGGGGGGGGGG-#yyxxzcc,=GGGGGGGGGGGG**#;#xxzl=%GGGGGGGGGGGGGGGG",
"GGGGGGGGGGGGGG=#uizcccc@=GGGGGGGGGGGGo@%-*zzzjO$GGGGGGGGGGGGGGGG",
"GGGGGGGGGGGGGG=&CDDDCCC%%GGGGGGGGGGGGGG+*=*@&OGGGGGGGGGGGGGGGGGG",
"GGGGGGGGGGGGGG=*CCDDDCM@=GGGGGGGGGGGGGG$=*--&<GGGGGGGGGGGGGGGGGG",
"GGGGGGGGGGGGGG*ODCmBCDM%*GGGGGGGGGGGGGGGGGGGGGGGGGGGGGGGGGGGGGGG",
"GGGGGGGGGGGGGG,#ZZ&=.CV-*GGGGGGGGGGGGGGGGGGGGGGGGGGGGGGGGGGGGGGG",
"GGGGGGGGGGGGGG*&CS#=.DB-=GGGGGGGGGGGGGGGGGGGGGGGGGGGGGGGGGGGGGGG",
"GGGGGGGGGGGGGGGG@&<-**%GGGGGGGGGGGGGGGGGGGGGGGGGGGGGGGGGGGGGGGGG",
"GGGGGGGGGGGGGGGG;---;--GGGGGGGGGGGGGGGGGGGGGGGGGGGGGGGGGGGGGGGGG"
};
