/* XPM */
static char *result[] = {
/* columns rows colors chars-per-pixel */
"64 64 12 1 ",
"  c #367C1C",
". c #3D423C",
"X c #164007",
"o c #7C1C21",
"O c #F6DF19",
"+ c #495047",
"@ c #A8774F",
"# c #5E695A",
"$ c #94806F",
"% c #5A5E58",
"& c #7D837A",
"* c black",
/* pixels */
"                                                                ",
"                                    ...               X   X     ",
"  ooo                               ...               X   X     ",
" oOOOo              X               ...             X X X X     ",
" oOOOo                       ...   ...+...          X@@@@       ",
" oOOOo            X          ...   ...+...        X @@@@@@X     ",
"  ooo                     X  ...  ....+...        X @@@@@@X     ",
"   X                      ...........##+++......  X @@@@@@X     ",
"   X                      ......###..##+++......      $$        ",
"   X     X                ......###..##+++......    X $$X       ",
"                X    ........ ..###.########%%%%... X $$X       ",
"       X   X         ........ ..############%%%%... X   X X     ",
"                     ..###... ..#####&&&&###%%%%...       X     ",
"         X        ...++###..    .####&&&&####%%%...   X   X     ",
"         X        ...++###.. X  ...#&&&&&####%%%...   X         ",
"           X      ...++..... X  ...#&&&&&####%%%... X X X       ",
"                X ...%%.....   ...##&&&&&&##++++... X   X       ",
"              X X ...%.....   ....##&&&&&&#+++++... X   X       ",
"              X   ........    ....##&&&&&&#+++++...             ",
"              X...++.....   X .#######&####++%%%...             ",
"               ...+.....    X .############++%%%...             ",
"    @@@@       ...+....       .############++%%%......          ",
"   @@@@@@      ...%...   X    .#####++++###++%%%......          ",
"   @@@@@@      ...%...   X  X ..###+++++###++%%%......          ",
"   @@@@@@      ....... X    X ...+++++++###++%%%%%%...oo        ",
"     $$        ......  X      ...+++%+++###++%%&&&%...OOo   X   ",
"     $$        ......    X     ....%%+++###++%%&&&%...OOo X X   ",
"     $$        ......    X     ....%%+++###++%&&&&%...OOo X     ",
"            ...###....         ....++++++++++%&&&%%...oo        ",
"            ...###....       X  ...++++++++++%&&&##...X         ",
"            ...####...       X  ...++++++++++%%&&&####...       ",
"   X   X ...#######...         ....++######++%%&&&####...       ",
"     X X ...#####&&....        ....++######++%%&&&####...       ",
"     X   ...#####&&....    X   ....++###&&&++%%%######... X     ",
"     X   ...#####&&&...    X   ...+++###&&&++++++++###... X     ",
"         ...######&&...        ...+++##&&&&++++++++###...       ",
"       X ...######&&...        ....+###&&&&++++++++###...       ",
"         ...######&&...        ....###&&&&&######+++++...       ",
"         ...######&....        .....#&&&&&#######+++++... X     ",
"         ...#######....  X      ....#&&&&#&&&####+++++... X     ",
"      ...####&&&###...   X      .....&&&&#&&&#########....X     ",
"      ...####&&&###... X         ....&&&##&&&#########%.....    ",
"      ...####&&&###... X      X   ...&&&##############%.....    ",
"   ...%%%##########...        X   ...&&###############%%%...    ",
"   ...%%&&&########...            ...&#############&&&%%%...    ",
"   ...%%&&&########...            ....############&&&&%%%...    ",
"   ...%%&&&%%++++++....           .....#######&&&&&&&&%%%...    ",
" X ...%%%%%%%++++++....    X      ......######&&&&&&&&%%%...    ",
" X ...%%%%%%%++++++%....   X       .....#####+&&&&&&&%%%%...    ",
" X ...%%%%%%%+++%%%%....             ....####++++++%%%%%%...    ",
"   ...%%%%%%%+++%%%%%...     X       ....#+++++++++%%%%%....    ",
"   ...%%%%%+++####%%%...     X     X  ....####+++++%%%%%....@   ",
"     ...%%%+++####%%%...  X        X  .....####++++++%%%....@@  ",
"   X ...%%%+++######%...  X   X       ......###++++++%%%....@@X ",
"     ...%+++++#######...      X        .....###++++++%%%....@@X ",
"   ...+++++++++++++##...                ....###++++++%%%....  X ",
"   ...+++++++++++++##...          X    ..... ##++++++%%%...$    ",
"   ...++++++..+++++...... X       X   ...... +++++++++.....$X   ",
"   ...+++.......+++...... X          ......  +++++++++..... X   ",
"   ...+++................            ......  +++++++....... X X ",
"   ...................               .........+++.......  X   X ",
"      ...............                .................X   X   X ",
"      ...............                   ..............X         ",
"                                                                "
};
