/* XPM */
static char *result[] = {
/* columns rows colors chars-per-pixel */
"64 64 134 2 ",
"   c #030100",
".  c #0B0502",
"X  c #070803",
"o  c #0A0A05",
"O  c #0C0C09",
"+  c #120E05",
"@  c #0E100B",
"#  c #111107",
"$  c #12120C",
"%  c #161612",
"&  c #1A1613",
"*  c #161C15",
"=  c #1B1A16",
"-  c #1B1E1A",
";  c #201F1A",
":  c #162119",
">  c #1D221C",
",  c #17281E",
"<  c #22231D",
"1  c #1E2522",
"2  c #1D2925",
"3  c #242523",
"4  c #292626",
"5  c #242924",
"6  c #292926",
"7  c #262729",
"8  c #292729",
"9  c #262A29",
"0  c #2A2A2A",
"q  c #322E2B",
"w  c #2E312C",
"e  c #33322D",
"r  c #38332D",
"t  c #2B2F31",
"y  c #2E3432",
"u  c #2F3239",
"i  c #343433",
"p  c #3C3731",
"a  c #353D36",
"s  c #3A3834",
"d  c #313538",
"f  c #373938",
"g  c #3E3E3D",
"h  c #5B2E33",
"j  c #413F3D",
"k  c #62353A",
"l  c #3D413E",
"z  c #41403E",
"x  c #3E3F41",
"c  c #413F40",
"v  c #683B40",
"b  c #3D4140",
"n  c #404040",
"m  c #575347",
"M  c #58544B",
"N  c #555452",
"B  c #5E5D55",
"V  c #625E55",
"C  c #625F58",
"Z  c #636057",
"A  c #67645D",
"S  c #6A6762",
"D  c #6E6B65",
"F  c #726E68",
"G  c #7F796E",
"H  c #7E7A71",
"J  c #84393E",
"K  c #873C41",
"L  c #893D45",
"P  c #87444E",
"I  c #8A454C",
"U  c #8B494D",
"Y  c #914B4E",
"T  c #8D4751",
"R  c #914B52",
"E  c #BC5C5C",
"W  c #BB5F60",
"Q  c #817A6B",
"!  c #837E74",
"~  c #BC6868",
"^  c #C55C5C",
"/  c #C7645F",
"(  c #C66363",
")  c #C96261",
"_  c #C46468",
"`  c #88816F",
"'  c #8D867B",
"]  c #918A7E",
"[  c #8A8782",
"{  c #8E8A81",
"}  c #958E82",
"|  c #969184",
" . c #999286",
".. c #94918A",
"X. c #9B9489",
"o. c #9F9989",
"O. c #9F9B92",
"+. c #A09A8C",
"@. c #A29D96",
"#. c #AAA79C",
"$. c #ADA8A2",
"%. c #B0AEA2",
"&. c #B6B3AA",
"*. c #BCBAAF",
"=. c #BBBBB1",
"-. c #CAC8BB",
";. c #D4CEBE",
":. c #D8D1BE",
">. c #D2CDC1",
",. c #D5D1C5",
"<. c #DCD6C5",
"1. c #DED9C6",
"2. c #DBD6CA",
"3. c #DED8C9",
"4. c #DFDDD1",
"5. c #E0D7C6",
"6. c #E0DAC7",
"7. c #E0D7C8",
"8. c #E1DBCA",
"9. c #E3DED1",
"0. c #E7E2CF",
"q. c #EBE7DB",
"w. c #ECEADD",
"e. c #F7F2DF",
"r. c #EFEFE3",
"t. c #F1EDE2",
"y. c #F9F6E7",
"u. c #FDF8E5",
"i. c #F6F3EE",
"p. c #FAF6EA",
"a. c #FEFAED",
"s. c #FEFDF4",
"d. c #FFFFF9",
"f. c None",
/* pixels */
"f.f.f.f.f.f.f.f.f.f.f.f.f.f.f.f.f.f.f.f.f.f.f.f.f.f.f.f.f.f.f.f.f.f.5 5 5 5 5 , 5 5 5 2 5 5 2 5 5 5 f.f.f.f.f.f.f.f.f.f.f.f.f.f.",
"f.f.f.f.f.f.f.f.f.f.f.f.f.f.f.f.f.f.f.f.f.f.f.f.f.f.f.f.f.f.f.f.f.f.0 0 0 0 0 0 0 0 0 0 0 0 0 0 6 0 f.f.f.f.f.f.f.f.f.f.f.f.f.f.",
"f.f.f.f.f.f.f.f.f.f.f.f.f.f.f.f.f.f.f.f.f.f.f.f.f.f.f.f.f.f.f.f.f.f.0 6 6 0 0 0 0 6 0 0 6 0 0 6 0 6 f.f.f.f.f.f.f.f.f.f.f.f.f.f.",
"f.f.f.f.f.f.f.f.f.f.0 6 0 0 6 0 f.f.f.f.f.f.f.f.f.f.f.f.f.f.f.4 6 & V Z A Z Z Z C C C C Z Z Z A A A 6 6 0 0 8 f.f.f.f.f.f.f.f.f.",
"f.f.f.f.f.f.f.f.f.f.0 0 0 9 0 0 f.f.f.f.f.f.f.f.f.f.f.f.f.f.f.7 0 = C C V C C C C C C C C C C C V V 4 4 6 6 4 f.f.f.f.f.f.f.f.f.",
"f.f.f.f.f.f.f.4 3 3 0 0 6 6 0 0 f.f.f.f.f.f.f.f.f.f.f.f.f.> > < < 0 C C V C C C C C C C Z C C C C C ; = - = % 4 8 f.f.f.f.f.f.f.",
"f.f.f.f.f.f.f.e 6 < j x l g 0 0 f.f.f.f.f.f.f.f.f.f.f.f.f.0 0 A B V C C C C C C C C C C C C C C C C C C C C C 4 8 f.f.f.f.f.f.f.",
"f.f.f.f.f.f.f.0 4 3 b g x x 0 0 f.f.f.f.f.f.f.f.f.f.f.f.f.0 6 Z j j C C C C C C C C C C C C C C C C C C C C C C 3 f.f.f.f.f.f.f.",
"f.f.f.f.f.0 0 c g x n n x g 0 0 f.f.f.f.f.f.f.f.f.f.> 7 6 g z n l n n n C C C C C C C C C C C C C C C C C C C C C 0 0 f.f.f.f.f.",
"f.f.f.f.f.0 0 g n n n g j b 0 0 f.f.f.f.f.f.f.f.f.f.w 7 7 g g n n n n n C C C C C C C C C C C C C C C C C C C C Z 0 0 f.f.f.f.f.",
"f.f.f.f.f.0 0 x n n n n 0 6 0 0 f.f.f.f.f.f.f.f.w 7 < x l z n n n n n g C C C A i C C C C C C C C C C C C C C C } 0 0 f.f.f.f.f.",
"f.f.f.f.f.0 0 g n n n n 0 0 6 0 f.f.f.f.f.f.f.f.9 0 3 n n n n n n c g g C A A A i C C C C C C C C C C C C C C C ] q 0 f.f.f.f.f.",
"f.f.f.f.f.0 0 g n n c b 0 6 w q > * * - - * * > 9 0 3 b n n n n n n 7 0 0 A A A r Z C C C ' ' V C C C C C C C Q ` 0 0 f.f.f.f.f.",
"f.f.f.f.f.0 0 x n n n c 0 8 f f 0 0 0 0 0 0 0 0 0 0 4 n n n n n n n 0 0 0 A A A i Z C Z +.} | } C C C C A p.<.3.8.0 0 f.f.f.f.f.",
"f.f.f.f.f.0 0 g n n x z 3 3 f f 3 3 3 4 3 c c n 0 0 3 x n n n n n n 0 0 A A A A i C A V X.} | } C C C C A p.7.3.<.8 0 f.f.f.f.f.",
"f.f.f.f.f.0 0 g c f 8 8 g x c c n g x c b c b c 7 0 3 x n n n n n n A A S A A A p V M <.1.1.1.<.C C C C A p.;.4 3 8 0 f.f.f.f.f.",
"f.f.f.f.f.0 0 c x i 0 3 x x b c n n n n n n n n 7 0 3 x z n c n n n A A A A A b e Z m :.<.<.<.6.C C C Z C a.>.6 0 0 0 f.f.f.f.f.",
"f.f.f.f.f.f.f.6 0 i c c c c n n n n n n n n n n 4 0 3 x n n b c n n A A A A i.1.3.0.F w 5 5   <.C C C C V s.>.0 0 6 0 f.f.f.f.f.",
"f.f.f.f.f.f.f.6 0 i n n b n c n n n n n n n n g 0 0 4 g n n n n n n A A A A a.1.1.1.F 0 0 0 X <.C C C C C p.>.7 0 0 0 f.f.f.f.f.",
"f.f.f.f.f.f.f.w i f n n c n n n n n n n n n n g 7 7 3 n n n n n n n 0 A A S s.1.1.1.D 0 0 0 o 1.C C C C Z ,.,.p r r r @ 6 , f.f.",
"f.f.f.f.f.6 4 b n n n n n n n n n n n n n n j g 7 0 3 n n n n n n n 0 A A A s.1.1.1.F 9 0 6 o 3.u.| | ] } ] } } } } | o 9 5 f.f.",
"f.f.f.f.f.0 0 n n n n n n n n n n n n n n x x g 3 4 7 x n n n n n n 4 A A A s.1.1.1.F 5 6 5   1.y.o. . .|  .} } } ] { o 0 5 f.f.",
"f.f.f.f.f.0 0 n n n c b n n n n n n n n n x g n c n 0 0 n n n 0 0 3 A A A 3.1.1.1.1.1.1.1.1.1.1.<.1.1.<.| | . 4 7 0 6 0 0 0 0 9 ",
"f.f.f.f.f.0 0 c n n n c n n n n n g n n n j x n b x 4 0 0 x n 0 0 A A A A 3.1.1.1.1.1.1.1.1.1.1.1.1.1.<. .|   0 0 0 0 0 0 0 0 0 ",
"f.f.* 6 3 b n n n n n n n n n n n n n n n c g n n n 4 0 0 7 0 7 7 A A A S 8.1.1.1.1.1.1.1.1.1.1.1.1.1.<.2.<.  0 0 0 0 0 0 0 0 0 ",
"f.f., 6 q n n n n n n b n n n n n n n n n n b n n n 4 0 0 0 0 0 0 A A A A 8.1.1.<.1.1.1.1.<.1.1.1.1.1.1.<.<.X 9 7 0 0 0 8 0 0 0 ",
"f.f.> 0 0 n n n n n n n n n n n n n n n n g n n n n y u u 0 8 i g A A A A A 8.1.1.1.1.1.1.1.1.1.1.1.1.1.1.1.<.4.p.6 8 d.d.d.7 0 ",
"f.f.> 0 0 n n n n n n n n n n n n n n n n g n n n b t u u 0 0 g n A A A A S 0.<.0.1.1.1.1.1.1.1.1.1.1.1.1.1.1.3.3.8 0 4.<.t.8 8 ",
"f.f.> 0 0 n n n n C C n n n n n n n n n n n n n n n n i d 8 0 g b A A A A A r.a.a.7.1.1.p.a.a.a.a.1.1.1.1.1.1.1.2.0 0 -.,.t.3 * ",
"f.f.> 0 0 n n n n n C n n n n n n n n n n n n n n n n n x 0 0 0 0 4 A A A A A A A 3.1.<.X 0 y 0 5 6.3.3.1.3.<.3.3.0 7 7 0 > f.f.",
"f.f.> 0 0 n n n n n C C n n n n n n n n n x n n n n n n x 0 0 0 0 4 n g A A A A A A 8.3.  3 0 0 < 8.1.1.<.1.<.1.;.6 4 3 0 > f.f.",
"f.f.> 6 0 A n n c n C C C n n n n n n n s V n n n n n n c c 0 0 0 7 7 3 A A A A S S n H ' ' ] ] &.7 y v R R R R T ^ ^ + 0 1 f.f.",
"f.f.> 0 0 V C C C C C C C n n n n n n n C C A n n n n n n n 0 0 7 0 0 7 z l A A A A A S A A } } %.6 9 k I T T I P ( ( # 0 1 f.f.",
"f.f.* 6 0 V C C C C C C C n n z n n f f C C C n n n n n n c x n n x 7 4 6 6 6 0 0 0 A A A A A A S 0 9 h K K J I P ( ) # 0 > f.f.",
"f.f.> 0 0 C C C C C C C C C g g g g C C C C A A A l g n n n n n n n 0 7 0 7 0 0 0 0 A A A A A A A 0 7 R ) / E I I ( ( : 0 > f.f.",
"f.f.& 3 C C C C C C C C C C z n g z C C C j A A A z s n n n n n n n 3 4 3 4 0 0 0 0 4 A A A A A A 0 9 L E ) E Y Y ( ( , 3 3 f.f.",
"8 4 <.1.7.Z Z C C C C C C C 0 0 j g V Z C b A A A A r C C c b c n n z z x c 0 0 0 0 0 0 0 0 0 0 0 0 6 6 7 ~ ) ( ( ( ( f.f.f.f.f.",
"6 6 1.1.1.7.V Z C C C C C Z 0 0 l g Z V C n A A A A i C C C C C C C C C C C 0 0 0 0 0 7 0 0 0 0 0 0 0 6 6 _ ( _ ( _ ) f.f.f.f.f.",
"0 6 <.7.7.1.C C C V C C Z V f.f.5 6 C C C C A A A A B C C C C C C C C C C C n n g g g n x n n n n 0 3 f.f.< 5 2 2 2 4 f.f.f.f.f.",
"0 6 1.7.<.1.C C C V V D 0 6 f.f.8 0 V C Z Z Z z j Z C C C C C C C C C C C C C Z x c n c n n c b b 0 < f.f.0 0 6 7 7 6 f.f.f.f.f.",
"0 0 1.7.1.7.5.Z V $ - 3 6 4 f.f.0 0 * C C V C l g V V V Z C C C C C C C C C C C C C n n n n n n z 0 > f.f.i w l f.f.f.f.f.f.f.f.",
"0 0 1.7.7.<.1.Z Z & 0 6 6 3 f.f.0 0 7 Z A V C z g A V Z C C C V C C C C C C C C C C n n n c n n n 0 > f.f.f.f.f.f.f.f.f.f.f.f.f.",
"6 0 3.<.7.1.1.Z V % 0 0 5 < f.f.i 0 0 6 C C C n s C C C C C C V V C C C C C C C C C C C C g n n n 5 5 f.f.f.f.f.f.f.f.f.f.f.f.f.",
"6 0 =.} 1.1.7.V Z * 0 6 f.f.f.f.f.f.3 6 0 6 0 0 0 0 & C C C C f n C C C C C C C C C C C 6 0 n n n z g 0 5 f.f.f.f.f.f.f.f.f.f.f.",
"0 0 *. . .A C C C = 0 0 f.f.f.f.f.f.> 0 0 0 6 q 6 0 & C C C C g b g V C C C V V V Z = 4 7 3 n n n n g 0 6 f.f.f.f.f.f.f.f.f.f.f.",
"0 0 d.1.1.1.3.7.8.  0 0 f.f.f.f.f.f.5 9 6 6 Z B - 6 = V C C C C C Z V C 0 0 0 0 0 0 0 6 < z n n n n f 7 0 f.f.f.f.f.f.f.f.f.f.f.",
"6 0 s.1.1.7.7.3.8.  0 6 f.f.f.f.f.f.3 6 0 0 N f.- 0 = C C C C C C C V V 0 0 8 0 0 0 0 0 z n n n n g f 0 0 f.f.f.f.f.f.f.f.f.f.f.",
"0 0 d.1.1.1.3.6 0 w 0 0 f.f.f.f.f.f.f.f.y 0 4 3 4 0 = C C C C C C C > 3 f.f.f.f.f.f.i 0 n n n n O.$.{ 0 0 f.f.f.f.f.f.f.f.f.f.f.",
"0 0 d.1.1.1.3.0 0 0 w 0 f.f.f.f.f.f.f.f.a 0 9 6 0 0 < Z C C C C C S 0 6 f.f.f.f.f.f.i 0 n n n l } } ' 7 0 f.f.f.f.f.f.f.f.f.f.f.",
"6 6 d.y.a.1.<.0 0 2 5 5 f.f.f.f.f.f.f.f.l 6 6 5 0 0 3 Z C C C C C S 0 8 f.f.f.f.f.f.l 6 n n n } ] ] ! 0 6 f.f.f.f.f.f.f.f.f.f.f.",
"f.f.- 7 w 2.<.0 0 5 f.f.f.f.f.f.f.f.f.f.f.f.f.f.6 0 0 n C C C C | #.0 0 f.f.f.f.f.f.f.f.3 6   1.6.6.8.1.9.0 0 f.f.f.f.f.f.f.f.f.",
"f.f.> 0 7 3.<.0 0 < f.f.f.f.f.f.f.f.f.f.f.f.f.f.6 9 4 n c C C  .} @.6 0 f.f.f.f.f.f.f.f.1 6 o <.1.1.1.3.8.0 0 f.f.f.f.f.f.f.f.f.",
"f.f.f.f.f.f.f.f.f.f.f.f.f.f.f.f.f.f.f.f.f.f.f.f.6 0 0 z z X.X. .X.%.0 0 f.f.f.f.f.f.f.f.< 0 o <.3.3.1.1.1.0.9.o 3 - f.f.f.f.f.f.",
"f.f.f.f.f.f.f.f.f.f.f.f.f.f.f.f.f.f.f.f.f.f.f.f.6 0 6 n z  .|  . .*.8 8 f.f.f.f.f.f.f.f.< 0 X 2.8.8.3.3.1.1.<.o 9 3 f.f.f.f.f.f.",
"f.f.f.f.f.f.f.f.f.f.f.f.f.f.f.f.f.f.f.f.f.f.f.f.6 0 0 n z ` G Q Q #.0 8 f.f.f.f.f.f.f.f.% > 3 X X 8.1.y.w.3.7.  0 3 f.f.f.f.f.f.",
"f.f.f.f.f.f.f.f.f.f.f.f.f.f.f.f.f.f.f.f.f.f.f.f.3 0 0 f.f.6.8.3.7.s.0 5 f.f.f.f.f.f.f.f.f.f.f.7 0 <.2.0 7 q.7.  6 5 f.f.f.f.f.f.",
"f.f.f.f.f.f.f.f.f.f.f.f.f.f.f.f.f.f.f.f.f.f.f.f.4 0 i f.f.1.3.3.7.s.e s f.f.f.f.f.f.f.f.f.f.f.6 < >.,.6 i q.2.O 0 3 f.f.f.f.f.f.",
"f.f.f.f.f.f.f.f.f.f.f.f.f.f.f.f.f.f.f.f.f.f.f.f.6 0 = <.3.1.1.3.7.5.7.:.0 0 f.f.f.f.f.f.f.f.f.f.f.0 0 0 6 0 0 6 6 2 f.f.f.f.f.f.",
"f.f.f.f.f.f.f.f.f.f.f.f.f.f.f.f.f.f.f.f.f.f.f.f.7 0 $ 3.1.0.3.3.8.8.6.0.0 0 f.f.f.f.f.f.f.f.f.f.f.0 0 q 8 8 0 0 6 > f.f.f.f.f.f.",
"f.f.f.f.f.f.f.f.f.f.f.f.f.f.f.f.f.f.f.f.f.f.f.f.f.f.f.    8.3.O $ # 7.:.0 0 f.f.f.f.f.f.f.f.f.f.f.f.f.f.f.f.f.f.f.f.f.f.f.f.f.f.",
"f.f.f.f.f.f.f.f.f.f.f.f.f.f.f.f.f.f.f.f.f.f.f.f.f.f.f.0 q 1.3.3 6 w 7.7.6 0 f.f.f.f.f.f.f.f.f.f.f.f.f.f.f.f.f.f.f.f.f.f.f.f.f.f.",
"f.f.f.f.f.f.f.f.f.f.f.f.f.f.f.f.f.f.f.f.f.f.f.f.f.f.f.f.f...@.4 0       f.f.f.f.f.f.f.f.f.f.f.f.f.f.f.f.f.f.f.f.f.f.f.f.f.f.f.f.",
"f.f.f.f.f.f.f.f.f.f.f.f.f.f.f.f.f.f.f.f.f.f.f.f.f.f.f.f.f.0 0 0 0 0 0 5 f.f.f.f.f.f.f.f.f.f.f.f.f.f.f.f.f.f.f.f.f.f.f.f.f.f.f.f.",
"f.f.f.f.f.f.f.f.f.f.f.f.f.f.f.f.f.f.f.f.f.f.f.f.f.f.f.f.f.< 5 5 5 6 0 > f.f.f.f.f.f.f.f.f.f.f.f.f.f.f.f.f.f.f.f.f.f.f.f.f.f.f.f."
};
