/* XPM */
static char *result[] = {
/* columns rows colors chars-per-pixel */
"64 64 111 2 ",
"   c #020200",
".  c #0E0D0A",
"X  c #1F1E1C",
"o  c #1D231D",
"O  c #21211F",
"+  c #1F2420",
"@  c #252624",
"#  c #2B2623",
"$  c #252924",
"%  c #292927",
"&  c #262628",
"*  c #292728",
"=  c #262A2B",
"-  c #292B29",
";  c #312D2A",
":  c #2F312E",
">  c #31312F",
",  c #3A362B",
"<  c #2E2F31",
"1  c #312F32",
"2  c #353534",
"3  c #3A3734",
"4  c #3A3935",
"5  c #3D3D3C",
"6  c #3E403D",
"7  c #41403E",
"8  c #4B443A",
"9  c #4F493D",
"0  c #3F3F41",
"q  c #3F4140",
"w  c #414140",
"e  c #484743",
"r  c #494946",
"t  c #464648",
"y  c #4E4D4A",
"u  c #514D42",
"i  c #504F4B",
"p  c #59544B",
"a  c #595752",
"s  c #5D5A54",
"d  c #5F5E59",
"f  c #625E56",
"g  c #635E58",
"h  c #5F605A",
"j  c #646056",
"k  c #686157",
"l  c #636059",
"z  c #68645D",
"x  c #6E6B64",
"c  c #726C65",
"v  c #73716C",
"b  c #787469",
"n  c #7E7A71",
"m  c #82373B",
"M  c #893A3F",
"N  c #8C4247",
"B  c #8D464C",
"V  c #90464D",
"C  c #9A454A",
"Z  c #BF6162",
"A  c #AE7675",
"S  c #B17A77",
"D  c #C35F5D",
"F  c #C5615F",
"G  c #C45F63",
"H  c #C56363",
"J  c #CA6263",
"K  c #C76866",
"L  c #D06668",
"P  c #8B8577",
"I  c #8C847D",
"U  c #8E8A7C",
"Y  c #938C7F",
"T  c #97927F",
"R  c #C2817F",
"E  c #C27C84",
"W  c #958E82",
"Q  c #969083",
"!  c #999284",
"~  c #9A968B",
"^  c #A29B8E",
"/  c #A7A49D",
"(  c #ACA99F",
")  c #ACA9A0",
"_  c #B7B5A9",
"`  c #C8C4BB",
"'  c #CECCBD",
"]  c #D1C8B7",
"[  c #D2CFBE",
"{  c #D5D1BF",
"}  c #D3CEC2",
"|  c #D5D1C4",
" . c #DBD5C5",
".. c #DED9C6",
"X. c #DDD7CA",
"o. c #DED9C9",
"O. c #E1D6C6",
"+. c #E0DAC7",
"@. c #E1D7C9",
"#. c #E1DBCA",
"$. c #E3DED2",
"%. c #E5E1D3",
"&. c #E9E2D0",
"*. c #E7E5D9",
"=. c #EDEADB",
"-. c #F0E8D3",
";. c #F2EFE0",
":. c #FCF6E6",
">. c #FBF8EC",
",. c #FFFEF4",
"<. c None",
/* pixels */
"<.<.<.<.<.<.<.<.<.<.<.<.<.<.<.<.<.<.<.<.<.<.<.<.<.<.<.<.<.<.<.<.<.<.<.: - = = : - - <.<.<.<.<.<.<.<.<.<.<.<.<.<.<.<.<.<.<.<.<.<.",
"<.<.<.<.<.<.<.<.<.<.<.<.<.<.<.<.<.<.<.<.<.<.<.<.<.<.<.<.<.<.<.<.<.<.<.- - - $ $ $ = <.<.<.<.<.<.<.<.<.<.<.<.<.<.<.<.<.<.<.<.<.<.",
"<.<.<.<.<.<.<.<.<.<.<.<.<.<.<.<.<.<.<.<.<.<.<.<.<.<.<.<.<.<.<.<.<.<.<.- $ $ 6 + = = - $ : <.<.<.<.<.<.<.<.<.<.<.<.<.<.<.<.<.<.<.",
"<.<.<.<.<.<.<.<.<.<.<.<.<.<.<.<.<.<.<.<.<.<.<.<.<.<.<.<.<.<.<.<.<.<.<.: = + 6 6 6 6 - = - <.<.<.<.<.<.<.<.<.<.<.<.<.<.<.<.<.<.<.",
"<.<.<.<.<.<.<.<.<.<.<.<.<.<.<.<.<.<.<.<.<.<.<.<.<.<.<.<.<.<.<.<.<.<.<.= 6 $ 6 6 5 4 = = - <.<.<.<.<.<.<.<.<.<.<.<.<.<.<.<.<.<.<.",
"<.<.<.<.<.<.<.<.<.<.<.<.<.<.<.<.<.<.<.<.<.<.<.<.- : - - - : + 6 - $ 6 $ o $ 6 6 2 5 5 4 - - : <.<.<.<.<.<.<.<.<.<.<.<.<.<.<.<.<.",
"<.<.<.<.<.<.<.<.<.<.<.<.<.<.<.<.<.<.<.<.<.<.<.- - $ : = - = = $ - - $ : - $ 6 6 5 4 4 6 $ - - <.<.<.<.<.<.<.<.<.<.<.<.<.<.<.<.<.",
"<.<.<.<.<.<.<.<.<.<.<.<.<.<.<.<.<.<.<.- - : - = = $ $ : - - : $ : = = $ : $ + o - - - = : - - <.<.<.<.<.<.<.<.<.<.<.<.<.<.<.<.<.",
"<.<.<.<.<.<.<.<.<.<.<.<.<.<.<.<.<.<.<.= - $ - - - - 7 w w w 5 w 6 6 q 6 5 5 - - - * - * - : - <.<.<.<.<.<.<.<.<.<.<.<.<.<.<.<.<.",
"<.<.<.<.<.<.<.<.<.<.<.<.<.<.<.- - = : - : $ = y 6 w 0 q w w w w 6 6 q q q 5 t w e e 4 - - - = - : <.<.<.<.<.<.<.<.<.<.<.<.<.<.<.",
"<.<.<.<.<.<.<.<.<.<.<.<.<.<.<.- - - = = - 6 6 6 q w w w q 0 w w q q e 6 q w w 6 0 0 2 * - - - - $ <.<.<.<.<.<.<.<.<.<.<.<.<.<.<.",
"<.<.<.<.<.<.<.<.<.<.<.<.<.- - - - - - 5 6 h h h l d d d d d d l h h h h d d l h d d a t w q - - - - : <.<.<.<.<.<.<.<.<.<.<.<.<.",
"<.<.<.<.<.<.<.<.<.<.<.<.<.= - - 4 4 4 4 4 d f f g g g g f f l g l l f f l f f f g g s 6 6 0 5 q : - - <.<.<.<.<.<.<.<.<.<.<.<.<.",
"<.<.<.<.<.<.<.<.<.<.<.<.<.: - - 4 5 5 4 5 d l d g f l f f l f g j h f j f l j j g g s 5 5 5 0 0 = = : <.<.<.<.<.<.<.<.<.<.<.<.<.",
"<.<.<.<.<.<.<.<.<.<.$ $ = 6 6 6 5 4 5 f f l f l l f f l d f l f f l d f l f l s g g l l z 5 6 5 6 6 6 : : = <.<.<.<.<.<.<.<.<.<.",
"<.<.<.<.<.<.<.<.<.<.- = = 4 4 6 5 5 4 f l f l l l l l l l l l l l l l l l l l l g g l d l 5 5 q 6 6 6 = $ : <.<.<.<.<.<.<.<.<.<.",
"<.<.<.<.<.<.<.<.- = = = $ 6 6 q q - - f g g l l l l l f f l l l l l l l l l l l l l d g l * - 0 q q q = = = : = <.<.<.<.<.<.<.<.",
"<.<.<.<.<.<.<.<.- - : 6 6 6 q q 5 - - g g k l l l g l l l l h l l l l l l l l l g l l g l - * 0 e 6 q 6 6 : $ = <.<.<.<.<.<.<.<.",
"<.<.<.<.<.<.<.<.- = - q q 6 q : - - - g l l l l l l l l l l l l f l l l l f l l l l l g x * - * - 5 q q 6 = = - <.<.<.<.<.<.<.<.",
"<.<.<.<.<.<.<.<.- - - q r 6 6 - - - - d l l g l l l l l l l l l l l l l l l l l l g g g g * < * - w q q 6 - - - <.<.<.<.<.<.<.<.",
"<.<.<.<.<.<.<.<.- - - q 0 0 5 - - f f f l l l l l l l l l l g l l l l l l l l l l l l l l d g - - w 7 0 w - - - <.<.<.<.<.<.<.<.",
"<.<.<.<.<.<.<.<.- - - 6 7 7 7 * * g f l g g g g g l l l l l l l l l l d f l l g l l l l g g f * * w 0 5 6 - - - <.<.<.<.<.<.<.<.",
"<.<.<.<.<.<.<.<.- - - 0 0 7 5 - @ g g g g z l l g g g d g g l l l l l l s f f f l l g l g g f - - w w w q - - - <.<.<.<.<.<.<.<.",
"<.<.<.<.<.<.<.<.- - - 5 0 7 7 - * g g g g p Q Q W W W W g l l g l l l l Q Q W Q W Y l d f g f * * w 0 0 5 - - - <.<.<.<.<.<.<.<.",
"<.<.<.<.<.<.<.<.: = $ 6 0 5 0 - @ g f g g p Q Q W Q Q Y g g g l l l l l Q Q Q Q Q W g g g g f - - q q q 6 o $ o <.<.<.<.<.<.<.<.",
"<.<.<.<.<.<.<.<.$ : : 6 7 0 5 - * f f $.$.#.@.#.@.#. .o.g g l l l l l l X. . .{  .#.$.| $.g f - - q 6 6 6 6 $ 6 <.<.<.<.<.<.<.<.",
"<.<.<.<.<.<.<.<.- - = 6 7 5 6 $ % f g @...............@.g g l l l l l l o.............@.$.g g - = q 6 6 6 $ $ = <.<.<.<.<.<.<.<.",
"<.<.<.<.<.<.<.<.= - - - 5 @ % - - g f o.+.$._ ~ b x  . .g l l l l l l l o. .` X.*.%.:.@.$.g f * - : $ 6 6 = : $ <.<.<.<.<.<.<.<.",
"<.<.<.<.<.<.<.<.= : : $ 6 : - - - l f #.+.=.- * - =  .| f g l l l l l l o...- - - % >.+.#.f s * = - - 5 6 = - = <.<.<.<.<.<.<.<.",
"<.<.<.<.<.<.<.<.= $ $ - 6 = - = - 9 8  .O.=.* - - =  .{ g g l l l l l l o...- = % % >.+.#., 4 - - - - 5 r - - - <.<.<.<.<.<.<.<.",
"<.<.<.<.<.<.<.<.<.<.$ - : - : - #  .{ +...;.- - - & |  .g g g l l l l l o. .- % % @ >.+.#.#.| 5 5 - - - : o <.<.<.<.<.<.<.<.<.<.",
"<.<.<.<.<.<.<.<.<.<.+ : + $ - - * ..+.+...=.2 > - 2 ' } f f k l l l l l  .{ > > : : ,...+.+.X.4 4 - * * - $ <.<.<.<.<.<.<.<.<.<.",
"<.<.<.<.<.<.<.<.<.<.<.<.<.- - 0 2 X.......o.o.o.@.@.Q Q U W W W ! W W W W ! #.+.#.@.o.......{ % @ 4 5 @ - @ <.<.<.<.<.<.<.<.<.<.",
"<.<.<.<.<.<.<.<.<.<.<.<.<.* - 7 r X.o.-.........+.+.Q W W W W Q Q W W T W Y o.........#..... .- % 5 5 % - O <.<.<.<.<.<.<.<.<.<.",
"<.<.<.<.<.<.<.<.<.<.<.<.<.- - 7 q : - $...........+.Q T W W W W W Q W Q Q Y ..........o.#.2 5 % @ 5 4 - - X <.<.<.<.<.<.<.<.<.<.",
"<.<.<.<.<.<.<.<.<.<.<.<.<.- - 7 5 - - { ............Q W Q Y W Q W Y Y Y T Q o.............& - - & 5 4 * = @ <.<.<.<.<.<.<.<.<.<.",
"<.<.<.<.<.<.<.<.<.<.<.<.<.- - 5 6 - = X.............Q W 1 * * * - * = * P Y X........... .; * 2 2 3 4 @ - @ <.<.<.<.<.<.<.<.<.<.",
"<.<.<.<.<.<.<.<.<.<.<.<.<.- ; 7 5 - - @.............Q W * - - * - - - - U W  .........@.@.- * 5 5 5 5 % - X <.<.<.<.<.<.<.<.<.<.",
"<.<.<.<.<.<.<.<.<.<.<.<.<.- - w w - - | { o.........Q ^ # * - - * - - - Q Q ........@. .| - * 4 3 5 5 % - O <.<.<.<.<.<.<.<.<.<.",
"<.<.<.<.<.<.<.<.<.<.<.<.<.; - w 0 0 0 = - ; ........+. .- - * * * < = - o.........o.  - - - * ; - 5 4 - - O <.<.<.<.<.<.<.<.<.<.",
"<.<.<.<.<.<.<.<.<.<.<.<.<.- - w 0 5 7 * - ; @.o.......#.- - * * * - - * $.........+.  - - - - a s 2 5 % - O <.<.<.<.<.<.<.<.<.<.",
"<.<.<.<.<.<.<.<.<.<.<.<.<.- - 7 w w 0 @ - ; ......+...]  .O.c # - 5 o.#.&.........o.  - * p f f f 5 4 % - O <.<.<.<.<.<.<.<.<.<.",
"<.<.<.<.<.<.<.<.<.<.<.<.<.- - 0 w w w - % 2 ....O.+.O.@.O.O.A O * 3 #.@.O.....o...@.  % * f f f f 4 5 - - @ <.<.<.<.<.<.<.<.<.<.",
"<.<.<.<.<.<.<.<.<.<.<.<.<.; ; g l 7 7 7 5 w ; - - * F J J G m k V B L J J L - < : - e f f f f f s 5 4 * = o <.<.<.<.<.<.<.<.<.<.",
"<.<.<.<.<.<.<.<.<.<.<.<.<.- * g g 7 7 5 5 e - - - & G G G H m B B B J J J H - = % % 4 g d f g g s 5 2 * - o <.<.<.<.<.<.<.<.<.<.",
"<.<.<.<.<.<.<.<.<.<.<.<.<.; - g f y i i y r - - - & H J H H m B B B J H J F = - 3 4 8 f f g f g f * @ <.<.<.<.<.<.<.<.<.<.<.<.<.",
"<.<.<.<.<.<.<.<.<.<.<.<.<.- - g f g f f g f 0 5 - & K J J J M V B B D H J H - = v f f f f g f g f - - <.<.<.<.<.<.<.<.<.<.<.<.<.",
"<.<.<.<.<.<.<.<.<.<.<.<.<.; * f f f f g g f 5 5 @ & R A J H C N N V G G S E - - v f p u u z g g f - - <.<.<.<.<.<.<.<.<.<.<.<.<.",
"<.<.<.<.<.<.<.<.<.<.<.<.<.; - f f g g g g l 4 5 4 4 & = H J H G G K H H = - * - b f g W ! g f g f * - <.<.<.<.<.<.<.<.<.<.<.<.<.",
"<.<.<.<.<.<.<.<.<.<.<.<.<.- - k z g g g l z 5 5 5 4 & @ G J J H H H H K - * - * b k c Q T f g g f - - <.<.<.<.<.<.<.<.<.<.<.<.<.",
"<.<.<.<.<.<.<.<.<.<.<.<.<.- - 7 7 g g g j l j l * = 4 t = - - - < * - * e r - ; / Q Y W W Y W W W * - <.<.<.<.<.<.<.<.<.<.<.<.<.",
"<.<.<.<.<.<.<.<.<.<.<.<.<.* - 5 5 g g f l l l f * & 5 5 - * - - - - - * w e * - ) W Y Q Q W W T W = - <.<.<.<.<.<.<.<.<.<.<.<.<.",
"<.<.<.<.<.<.<.<.<.<.<.<.<.<.<.% * g g ~ ! ~ l l - - <.<.<.<.<.<.<.<.<.<.<.<.- - ) W W W Q W Y - * <.<.<.<.<.<.<.<.<.<.<.<.<.<.<.",
"<.<.<.<.<.<.<.<.<.<.<.<.<.<.<.- - g g ! Q ! l f @ * <.<.<.<.<.<.<.<.<.<.<.<.- - ) W W Y W Q P * % <.<.<.<.<.<.<.<.<.<.<.<.<.<.<.",
"<.<.<.<.<.<.<.<.<.<.<.<.<.<.<.- @ g g Q Q ^ ! Q - * <.<.<.<.<.<.<.<.<.<.<.<.* - O   # Y W Y W - & <.<.<.<.<.<.<.<.<.<.<.<.<.<.<.",
"<.<.<.<.<.<.<.<.<.<.<.<.<.<.<.- * g g Q Q W ! ! < - <.<.<.<.<.<.<.<.<.<.<.<.- ; * # # Q W W Y - - <.<.<.<.<.<.<.<.<.<.<.<.<.<.<.",
"<.<.<.<.<.<.<.<.<.<.<.<.<.<.<.- $ l k ! ! ! ! ! = * <.<.<.<.<.<.<.<.<.<.<.<.+ + % % $ W W W I O $ <.<.<.<.<.<.<.<.<.<.<.<.<.<.<.",
"<.<.<.<.<.<.<.<.<.<.<.<.<.<.<.- @  .o.#.o. . . .- - <.<.<.<.<.<.<.<.<.<.<.<.<.<.@ - % @ + & @ <.<.<.<.<.<.<.<.<.<.<.<.<.<.<.<.<.",
"<.<.<.<.<.<.<.<.<.<.<.<.<.<.<.- @  .X...+.X. .} @ & <.<.<.<.<.<.<.<.<.<.<.<.<.<.$ $ - - & = > <.<.<.<.<.<.<.<.<.<.<.<.<.<.<.<.<.",
"<.<.<.<.<.<.<.<.<.<.<.<.<.<.<.- @ X.+.' } X.@.[ - * <.<.<.<.<.<.<.<.<.<.<.<.<.<.<.<.<.<.<.<.<.<.<.<.<.<.<.<.<.<.<.<.<.<.<.<.<.<.",
"<.<.<.<.<.<.<.<.<.<.<.<.<.<.<.- * ....= - .  .} - - <.<.<.<.<.<.<.<.<.<.<.<.<.<.<.<.<.<.<.<.<.<.<.<.<.<.<.<.<.<.<.<.<.<.<.<.<.<.",
"<.<.<.<.<.<.<.<.<.<.<.<.<.<.<.* - o. .# - .  .} - - <.<.<.<.<.<.<.<.<.<.<.<.<.<.<.<.<.<.<.<.<.<.<.<.<.<.<.<.<.<.<.<.<.<.<.<.<.<.",
"<.<.<.<.<.<.<.<.<.<.<.<.<.<.<.<.<.@ @ 1 - ; * - <.<.<.<.<.<.<.<.<.<.<.<.<.<.<.<.<.<.<.<.<.<.<.<.<.<.<.<.<.<.<.<.<.<.<.<.<.<.<.<.",
"<.<.<.<.<.<.<.<.<.<.<.<.<.<.<.<.<.- * ; - * - - <.<.<.<.<.<.<.<.<.<.<.<.<.<.<.<.<.<.<.<.<.<.<.<.<.<.<.<.<.<.<.<.<.<.<.<.<.<.<.<."
};
