/* XPM */
static char *result[] = {
/* columns rows colors chars-per-pixel */
"64 64 134 2 ",
"   c #030100",
".  c #0B0502",
"X  c #070803",
"o  c #0A0A05",
"O  c #0C0C09",
"+  c #120E05",
"@  c #0E100B",
"#  c #111107",
"$  c #12120C",
"%  c #161612",
"&  c #1A1613",
"*  c #161C15",
"=  c #1B1A16",
"-  c #1B1E1A",
";  c #201F1A",
":  c #162119",
">  c #1D221C",
",  c #17281E",
"<  c #22231D",
"1  c #1E2522",
"2  c #1D2925",
"3  c #242523",
"4  c #292626",
"5  c #242924",
"6  c #292926",
"7  c #262729",
"8  c #292729",
"9  c #262A29",
"0  c #2A2A2A",
"q  c #322E2B",
"w  c #2E312C",
"e  c #33322D",
"r  c #38332D",
"t  c #2B2F31",
"y  c #2E3432",
"u  c #2F3239",
"i  c #343433",
"p  c #3C3731",
"a  c #353D36",
"s  c #3A3834",
"d  c #313538",
"f  c #373938",
"g  c #3E3E3D",
"h  c #5B2E33",
"j  c #413F3D",
"k  c #62353A",
"l  c #3D413E",
"z  c #41403E",
"x  c #3E3F41",
"c  c #413F40",
"v  c #683B40",
"b  c #3D4140",
"n  c #404040",
"m  c #575347",
"M  c #58544B",
"N  c #555452",
"B  c #5E5D55",
"V  c #625E55",
"C  c #625F58",
"Z  c #636057",
"A  c #67645D",
"S  c #6A6762",
"D  c #6E6B65",
"F  c #726E68",
"G  c #7F796E",
"H  c #7E7A71",
"J  c #84393E",
"K  c #873C41",
"L  c #893D45",
"P  c #87444E",
"I  c #8A454C",
"U  c #8B494D",
"Y  c #914B4E",
"T  c #8D4751",
"R  c #914B52",
"E  c #BC5C5C",
"W  c #BB5F60",
"Q  c #817A6B",
"!  c #837E74",
"~  c #BC6868",
"^  c #C55C5C",
"/  c #C7645F",
"(  c #C66363",
")  c #C96261",
"_  c #C46468",
"`  c #88816F",
"'  c #8D867B",
"]  c #918A7E",
"[  c #8A8782",
"{  c #8E8A81",
"}  c #958E82",
"|  c #969184",
" . c #999286",
".. c #94918A",
"X. c #9B9489",
"o. c #9F9989",
"O. c #9F9B92",
"+. c #A09A8C",
"@. c #A29D96",
"#. c #AAA79C",
"$. c #ADA8A2",
"%. c #B0AEA2",
"&. c #B6B3AA",
"*. c #BCBAAF",
"=. c #BBBBB1",
"-. c #CAC8BB",
";. c #D4CEBE",
":. c #D8D1BE",
">. c #D2CDC1",
",. c #D5D1C5",
"<. c #DCD6C5",
"1. c #DED9C6",
"2. c #DBD6CA",
"3. c #DED8C9",
"4. c #DFDDD1",
"5. c #E0D7C6",
"6. c #E0DAC7",
"7. c #E0D7C8",
"8. c #E1DBCA",
"9. c #E3DED1",
"0. c #E7E2CF",
"q. c #EBE7DB",
"w. c #ECEADD",
"e. c #F7F2DF",
"r. c #EFEFE3",
"t. c #F1EDE2",
"y. c #F9F6E7",
"u. c #FDF8E5",
"i. c #F6F3EE",
"p. c #FAF6EA",
"a. c #FEFAED",
"s. c #FEFDF4",
"d. c #FFFFF9",
"f. c None",
/* pixels */
"f.f.f.f.f.f.f.f.f.f.f.f.f.f.3 5 5 2 5 5 2 5 5 5 5 5 5 2 4 5 f.f.f.f.f.f.f.f.f.f.f.f.f.f.f.f.f.f.f.f.f.f.f.f.f.f.f.f.f.f.f.f.f.f.",
"f.f.f.f.f.f.f.f.f.f.f.f.f.f.0 0 0 0 0 0 0 6 0 0 0 0 0 0 0 0 f.f.f.f.f.f.f.f.f.f.f.f.f.f.f.f.f.f.f.f.f.f.f.f.f.f.f.f.f.f.f.f.f.f.",
"f.f.f.f.f.f.f.f.f.f.f.f.f.f.6 0 0 0 0 0 6 0 6 0 0 0 6 6 0 6 f.f.f.f.f.f.f.f.f.f.f.f.f.f.f.f.f.f.f.f.f.f.f.f.f.f.f.f.f.f.f.f.f.f.",
"f.f.f.f.f.f.f.f.f.8 0 0 6 4 A Z Z A Z C Z C Z C Z Z Z Z Z V & 6 6 f.f.f.f.f.f.f.f.f.f.f.f.f.f.f.0 0 6 0 6 0 f.f.f.f.f.f.f.f.f.f.",
"f.f.f.f.f.f.f.f.f.4 0 0 0 4 V V C C C C C C C C Z Z B Z C C & 0 7 f.f.f.f.f.f.f.f.f.f.f.f.f.f.f.0 0 0 0 0 0 f.f.f.f.f.f.f.f.f.f.",
"f.f.f.f.f.f.f.4 3 % = - = ; Z V Z Z C C C C C C C C A B C C 0 > < > > f.f.f.f.f.f.f.f.f.f.f.f.f.0 0 3 9 0 0 3 3 6 f.f.f.f.f.f.f.",
"f.f.f.f.f.f.f.8 0 C C C C C Z C C B C C C C C C C C C C C C V V A 6 0 f.f.f.f.f.f.f.f.f.f.f.f.f.0 0 g g b x 3 0 0 f.f.f.f.f.f.f.",
"f.f.f.f.f.f.f.3 C C C C C C C C C C C C C C C C C C C C C C b n Z 6 6 f.f.f.f.f.f.f.f.f.f.f.f.f.0 0 g b b c < 3 0 f.f.f.f.f.f.f.",
"f.f.f.f.f.0 q C C C C C C C C C C C C C C C C C C C C C b c n n z z g 9 9 - f.f.f.f.f.f.f.f.f.f.0 0 g b n n n n n 0 0 f.f.f.f.f.",
"f.f.f.f.f.0 4 A C C C C C C C C C C C C C C C V C C C C c n n n l j g 0 9 e f.f.f.f.f.f.f.f.f.f.0 0 c j g n n n z 0 0 f.f.f.f.f.",
"f.f.f.f.f.0 0 ] C C C C C C C C C C C C C C C i C C C C g n n n n n g g x 3 0 0 f.f.f.f.f.f.f.f.0 0 0 0 n n n n l 0 0 f.f.f.f.f.",
"f.f.f.f.f.0 q ] C C C C C C C C C C C C C C C s A A A C g g n n n n n n b 3 9 9 f.f.f.f.f.f.f.f.6 0 0 0 n n n n j 0 0 f.f.f.f.f.",
"f.f.f.f.f.0 0 ! Q C C V C C C C Z ' ' Z C C B s A A A 0 0 0 c n n n n n n 3 0 0 > * * - - - - > e 0 0 0 c b c n x 0 0 f.f.f.f.f.",
"f.f.f.f.f.0 0 8.3.3.p.A C C C C } } } o.C C V e A A A 0 0 0 n n n n c b g 3 0 0 0 0 0 0 0 9 0 0 f f 8 0 z x n n x 0 0 f.f.f.f.f.",
"f.f.f.f.f.0 6 ,.2.3.p.A C C C C } } } X.V A C s A A S A 0 0 n n n z n n c 3 8 0 n n n 3 3 3 3 3 f f 3 3 c c x c g 0 0 f.f.f.f.f.",
"f.f.f.f.f.0 6 3 6 ;.p.A C C C C 3.1.1.1.<.M C s A A A A S A n n n n n n x 3 0 8 n n n n x c x c c j x g 0 0 f x g 0 0 f.f.f.f.f.",
"f.f.f.f.f.0 0 0 6 >.a.C C C C C <.<.<.<.<.m A e g A A A A A n n c b n n x 3 0 0 n n c n n n n n x b c n 3 0 i x j 0 0 f.f.f.f.f.",
"f.f.f.f.f.0 0 6 0 >.s.V C C C C <.  4 4 6 F 8.1.<.i.A A A A n n n n n n g 3 0 7 n n n n n n n n c c n n n n i 0 6 f.f.f.f.f.f.f.",
"f.f.f.f.f.w 0 0 0 >.p.Z C C C C <.X 0 0 9 F 1.1.1.s.A A A A n n c n x c g 3 0 0 g n n n n n b n n n n n x n i 0 6 f.f.f.f.f.f.f.",
"f.f.> 6 @ r r r s >.<.V C C C C 6.o 6 0 w D 1.1.1.s.A A A 0 n n n n c c x 3 0 8 g n n n n n n n n n n n c c f i w f.f.f.f.f.f.f.",
"f.f.5 9 o | } } } } } } ] | | u.1.o 0 0 9 D 1.1.1.s.A A A 0 n x n n n n n 3 0 8 g g n n n n n n n n n n n n n n n 7 4 f.f.f.f.f.",
"f.f.6 0 o ] } } } }  .} X. .o.e.1.  6 0 3 F 1.1.1.s.A A A 3 n j n n n n n 7 3 3 g x j n n n n n n n n n n n n n n 0 0 f.f.f.f.f.",
"9 0 0 0 0 3 3 7 6   | | <.1.1.1.1.1.1.1.3.1.1.1.1.1.8.A A A 3 0 0 n n n 0 0 n n c b x n n n n n n c b n n n n n n 0 0 f.f.f.f.f.",
"0 0 0 0 0 0 0 0 9   | | <.1.1.1.1.1.1.1.1.1.1.1.1.1.8.A A A S 0 0 g g 0 0 3 n n n j x n n n c n n z c n n n n n g 0 0 f.f.f.f.f.",
"0 0 0 0 0 0 0 8 0   <.<.<.1.1.1.1.1.1.1.1.1.1.1.1.1.8.A A S A 3 0 0 3 0 0 3 n n n b c n n n n n n n n n n n n n n n n 3 5 * f.f.",
"0 0 0 0 0 0 0 9 0   <.<.1.1.1.1.1.1.1.1.1.1.1.1.1.1.8.A A A A 0 0 0 0 0 0 7 n n n g g n n n n n n n n n n n n n n n n q 0 , f.f.",
"0 7 d.d.d.8 8 y.9.<.8.<.1.1.1.1.1.1.1.1.1.1.1.1.1.4.A A A A A g f 8 0 u d d n n n n g n n n n n n n n n n n n n n n n 0 0 > f.f.",
"0 0 t.<.9.0 8 2.3.1.1.3.1.1.1.8.1.<.1.1.1.1.1.0.1.0.A A A A A n g 0 0 u u t n n n n c n n n n n n n n n n n n n n n n 0 0 > f.f.",
"= 3 r.>.-.0 0 3.1.1.1.1.1.1.6.a.a.a.a.p.1.1.3.a.a.r.A A A A A b g 0 0 i i b c n n n n n n n c n n n n n n C C n n n n 0 0 > f.f.",
"f.f.1 0 8 0 9 3.3.1.1.1.3.3.6.3 0 w 0 X <.1.3.A A A A A A A 3 0 8 0 0 x x c n n n n n n n n n n n n n n n C n n n n n 0 0 > f.f.",
"f.f.1 0 3 3 6 ;.3.1.1.1.<.2.8.> 0 9 3   3.9.A A A A A A l n 3 0 0 0 0 n n n n n n n c b n n n n n n n n C C n n n n n 0 0 > f.f.",
"f.f.> 0 + ^ ^ T U R R R v y 0 &.] ] ] ' H n A A A A A A 3 0 0 0 0 0 n n n c n n x c V s n n n n n n n C C A n n n n C 0 6 > f.f.",
"f.f.> 0 # ( ) P I I R I k 9 4 %.} } A A A A S A A A z z 7 8 0 0 7 0 c n n n n n n C C C n n n n n n n C C C C C C C V 0 0 - f.f.",
"f.f.1 0 # ) ( T I J L J h 9 0 A A A A S A A 0 0 0 0 6 3 0 0 g n n x b n n n n n n Z C C f f n n n n n C C C C C C C V 0 0 - f.f.",
"f.f.1 0 : ( ( U I E / ^ R 0 0 A A A A A A A 0 0 0 0 7 8 0 8 n n n n n n n z g A A A C C C C j z g g C C C C C C C C C 0 6 > f.f.",
"f.f.> 3 , ( ( R Y ~ / E I 0 0 A A A A A A 3 0 0 0 0 3 3 3 3 n n n n n n n s n A A A z C C C x g c z C C C C C C C C C C 3 * f.f.",
"f.f.f.f.f.( ( ( ^ ) ~ 9 6 0 0 0 0 0 0 0 0 8 0 0 0 0 n n z j b n n n n C C e A A A A n C B Z g g 0 0 C C C C C C C C V 1.5.5.4 4 ",
"f.f.f.f.f.) _ ( ( ) _ 4 6 0 0 0 0 0 0 0 0 0 0 0 0 0 C A V V C C C C C C C i A A A A z C Z Z g g 6 0 C Z C C C C C C 6.5.<.6.3 9 ",
"f.f.f.f.f.3 2 2 2 3 < f.f.3 0 n n n n x n g g g g c C C C A C C C C C C V B A A S A B C Z C 3 6 f.f.C V C V C C C C 5.1.1.6.0 6 ",
"f.f.f.f.f.6 9 0 9 0 0 f.f.> 6 n n n n n n n g x C C C C C C C C C C C C C A V z b B A Z Z V 0 0 f.f.4 0 D B V Z C C 1.1.5.1.0 0 ",
"f.f.f.f.f.f.f.f.l y e f.f.> 0 z n n j n n n C C C C C C C C C C C C C C C C C j l Z V Z C = 0 q f.f.4 6 4 = % V C <.5.6.<.6.0 0 ",
"f.f.f.f.f.f.f.f.f.f.f.f.f.> 0 n n n x c n n C C C C C C C C C V V C C C C C C j z V C Z Z 6 0 0 f.f.4 9 8 8 & V C 6.6.<.6.5.0 0 ",
"f.f.f.f.f.f.f.f.f.f.f.f.f.5 3 l n n x C C C C C C C C C C C C V V C C C C C V g n V C C 0 6 0 w f.f.< 6 0 6 % V C 6.5.6.6.<.0 0 ",
"f.f.f.f.f.f.f.f.f.f.f.6 0 l z z n n 0 0 C C C C C C C C C C C n f C C C C & 4 0 0 0 9 0 9 3 f.f.f.f.f.f.0 0 & C C 5.<.6.} =.0 4 ",
"f.f.f.f.f.f.f.f.f.f.f.3 0 g n n c b 3 9 0 = V V V V C C C C g b g C C C C % 0 6 q 4 0 0 0 3 f.f.f.f.f.f.6 w * C C C A  .| *.0 0 ",
"f.f.f.f.f.f.f.f.f.f.f.0 8 f n n n c j < 0 6 0 0 0 8 0 0 C V C C C C C C V = 6 ; B Z 6 0 6 2 f.f.f.f.f.f.0 0   8.8.3.<.1.3.d.0 6 ",
"f.f.f.f.f.f.f.f.f.f.f.0 0 f l c n n n n 0 0 0 0 0 0 0 0 C V C C C C C C C = 0 - f.N 0 0 6 5 f.f.f.f.f.f.6 0   8.8.3.1.1.<.s.t 0 ",
"f.f.f.f.f.f.f.f.f.f.f.0 0 [ $.O.n n c l 0 i f.f.f.f.f.f.< < C V C C C C C = 0 3 3 3 0 y f.f.f.f.f.f.f.f.0 0 0 0 4 3.6.1.6.d.0 0 ",
"f.f.f.f.f.f.f.f.f.f.f.0 0 ' } } l z n n 0 a f.f.f.f.f.f.4 0 S A C C C C A < 0 0 6 0 0 a f.f.f.f.f.f.f.f.w 0 0 0 y 3.3.6.1.d.0 0 ",
"f.f.f.f.f.f.f.f.f.f.f.6 0 ! ] ] | l n n 4 a f.f.f.f.f.f.0 0 S V C C C C Z < 0 0 2 6 6 a f.f.f.f.f.f.f.f.5 5 > 0 0 1.3.a.y.d.6 3 ",
"f.f.f.f.f.f.f.f.f.0 0 9.1.8.3.6.<.  0 > f.f.f.f.f.f.f.f.8 0 #. .C C C C l 0 0 6 f.f.f.f.f.f.f.f.f.f.f.f.f.f.5 0 9 1.<.0 0 : f.f.",
"f.f.f.f.f.f.f.f.f.0 6 8.1.1.1.1.<.O 6 3 f.f.f.f.f.f.f.f.8 0 @.}  .C A n n 3 0 6 f.f.f.f.f.f.f.f.f.f.f.f.f.f.< 0 0 <.3.7 0 > f.f.",
"f.f.f.f.f.f.> 3 o 9.9.<.1.1.1.3.<.o 0 > f.f.f.f.f.f.f.f.0 0 %. . .X.X.j z 0 0 6 f.f.f.f.f.f.f.f.f.f.f.f.f.f.f.f.f.f.f.f.f.f.f.f.",
"f.f.f.f.f.f.1 9 o 5.<.<.8.1.8.8.<.X 0 3 f.f.f.f.f.f.f.f.0 0 =.}  .}  .z n 6 0 6 f.f.f.f.f.f.f.f.f.f.f.f.f.f.f.f.f.f.f.f.f.f.f.f.",
"f.f.f.f.f.f.3 0   5.3.r.u.3.8.    3 > % f.f.f.f.f.f.f.f.4 0 #.G Q Q ! z n 6 0 6 f.f.f.f.f.f.f.f.f.f.f.f.f.f.f.f.f.f.f.f.f.f.f.f.",
"f.f.f.f.f.f.3 6   8.q.0 9 2.1.0 0 f.f.f.f.f.f.f.f.f.f.f.6 0 s.<.8.8.6.f.f.0 0 6 f.f.f.f.f.f.f.f.f.f.f.f.f.f.f.f.f.f.f.f.f.f.f.f.",
"f.f.f.f.f.f.3 0 O 2.q.i 6 ,.>.< 6 f.f.f.f.f.f.f.f.f.f.f.p e d.6.3.8.1.f.f.i 0 4 f.f.f.f.f.f.f.f.f.f.f.f.f.f.f.f.f.f.f.f.f.f.f.f.",
"f.f.f.f.f.f.3 6 3 0 6 0 0 6 0 f.f.f.f.f.f.f.f.f.f.f.0 6 <.6.5.6.8.<.1.3.6.= 0 6 f.f.f.f.f.f.f.f.f.f.f.f.f.f.f.f.f.f.f.f.f.f.f.f.",
"f.f.f.f.f.f.1 6 0 0 8 0 q 0 0 f.f.f.f.f.f.f.f.f.f.f.0 0 8.6.8.8.8.5.9.5.<.$ 0 9 f.f.f.f.f.f.f.f.f.f.f.f.f.f.f.f.f.f.f.f.f.f.f.f.",
"f.f.f.f.f.f.f.f.f.f.f.f.f.f.f.f.f.f.f.f.f.f.f.f.f.f.0 6 :.8.# $ o 3.8.    f.f.f.f.f.f.f.f.f.f.f.f.f.f.f.f.f.f.f.f.f.f.f.f.f.f.f.",
"f.f.f.f.f.f.f.f.f.f.f.f.f.f.f.f.f.f.f.f.f.f.f.f.f.f.0 6 6.8.0 0 3 6.8.0 0 f.f.f.f.f.f.f.f.f.f.f.f.f.f.f.f.f.f.f.f.f.f.f.f.f.f.f.",
"f.f.f.f.f.f.f.f.f.f.f.f.f.f.f.f.f.f.f.f.f.f.f.f.f.f.f.f.      0 3 @...f.f.f.f.f.f.f.f.f.f.f.f.f.f.f.f.f.f.f.f.f.f.f.f.f.f.f.f.f.",
"f.f.f.f.f.f.f.f.f.f.f.f.f.f.f.f.f.f.f.f.f.f.f.f.f.f.f.f.5 6 0 9 0 0 7 f.f.f.f.f.f.f.f.f.f.f.f.f.f.f.f.f.f.f.f.f.f.f.f.f.f.f.f.f.",
"f.f.f.f.f.f.f.f.f.f.f.f.f.f.f.f.f.f.f.f.f.f.f.f.f.f.f.f.> 6 9 6 6 9 < f.f.f.f.f.f.f.f.f.f.f.f.f.f.f.f.f.f.f.f.f.f.f.f.f.f.f.f.f."
};
