/* XPM */
static char *result[] = {
/* columns rows colors chars-per-pixel */
"64 64 17 1 ",
"  c #367C1C",
". c #104014",
"X c #129F3E",
"o c #164007",
"O c #379F12",
"+ c #A8774F",
"@ c #198039",
"# c #7C1C21",
"$ c #F6DF19",
"% c #94806F",
"& c #73431C",
"* c #673915",
"= c #784A25",
"- c #3E362F",
"; c #574C43",
": c #71675F",
"> c black",
/* pixels */
"                                                                ",
"                                                                ",
"                             ...                                ",
"                             ...                                ",
"                             ...                                ",
"                          ...XXX...                             ",
"                          ...XXX...          o                  ",
"               o          ...OOO...          o                  ",
"               o          ...OOO...        o o o                ",
"             o o o        ...OOO...        o   o     ++++       ",
"             o   o     ...OOOOOO@@@...     o   o    ++++++      ",
"             o   o     ...OOOOOO@@@...              ++++++      ",
"      ###              ...OOOOOO@@@...              ++++++      ",
"     #$$$#             ...OOOOOO@@@...                %%        ",
"     #$$$#           ..XXXOOOOOO@@@XXX..              %%        ",
"     #$$$#           ..XXXOOOOOO@@@XXX..              %%        ",
"      ###        .........OOOOOOOOO.........                    ",
"       o         .........OXXXOOOOO.........                    ",
"       o         .........OXXXOOOOO.........                    ",
"       o               ...OXXXOO@@@...                          ",
"                       ...OOOOOO@@@...                          ",
"     o                 ...OOOOOO@@@...                o         ",
"     o               .....OOOOOO@@@.....              o         ",
"   o o o             .....OOOOOO@@@.....            o o o       ",
"   o   o         ....XX@@@OOOOOOOOOOOOXX....        o   o       ",
"   o   o         ....XX@@@OOOOOOOOOOOOXX....        o   o       ",
"    ++++         ....XX@@@OOOOOOOOOOOOXX....                    ",
"   ++++++     .........OOOOOOOOOXXXOOO.........                 ",
"   ++++++     .........OOOOOOOOOXXXOOO.........            o    ",
"   ++++++     .........OOOOOOOOOXXXOOO.........            o    ",
"     %%              ..OOOOOOOOOOOOOOO..                 o o o  ",
"     %%              ..OOOOOOOOOOOOOOO..    ###          o   o  ",
"     %%           ###..OOOOOOOOOOOOOOO..   #$$$#         o   o  ",
"                 #$$$..OOO@@@OOOOOOOOO..   #$$$#                ",
"                 #$$$..OOO@@@OOOOOOOOOXX....$$$#                ",
"        o        ......OOO@@@OOOOOOOOOXX....###       ###       ",
"        o        ......OOOOOOOOOOOOOOOXX.... o       #$$$#      ",
"      o o o   ...XXXOOOOOOOOOOOOOOOOOOOOOOOO.o.      #$$$#      ",
"      o   o   ...XXXOOOOOOOOOOOOOOOOOOOOOOOO.o.      #$$$#      ",
"      o   o   ...XXXOOOOXXXOOOOOOOOOOOOOOOOO...       ###       ",
"            ......@@@OOOXXXO@@OOOOOOOOOO.........      o        ",
"            ......@@@OOOXXXO@@OOOOOOOOOO.........      o        ",
"                 .@@@OOOOOOOOO@@@OOOOOOO....           o        ",
"                 .@@@OOOOOOOOO@@@OOOOOOO....                    ",
"                 .@@@OOOOOOOOO@@@OOOOOOO....                    ",
"      ###     ...XXXXOOOOXXX.....@@@OOOOXXXX...                 ",
"     #$$$#    ...XXXXOOOOXXX.....@@@OOOOXXXX...                 ",
"     #$$$#    ...XXXXOOOOXXX.....@@@OOOOXXXX...                 ",
"     #$$$#  ..XXXOOOOOOOO...&&&&&...XXXOOOOO@@@..               ",
"      ###   ..XXXOOOOOOOO...&&&&&...XXXOOOOO@@@..         ooo   ",
"       o ................&&***&&&===................      ooo   ",
"       o ................&&***&&&===................      ooo   ",
"       o ................&&***&&&===................            ",
"         ................&&***&&&===................            ",
"                         &&***&&&&&&                            ",
"    o                    &&***&&&&&&       o                    ",
"    o           ooo      &&***&&&&&&       o             ++++   ",
"  o o o         ooo      &&***&&&&&&     o o o          ++++++  ",
"  o   o      ---ooo      &&&==&&***&     o   o ooo      ++++++  ",
"  o   o    ;;---      &&&&&&==&&***&&&&  o   o ooo      ++++++  ",
"           ;:---      &&&&&&&&&&***&&&&        ooo        %%    ",
"           ;::---     &&&&&&&&&&***&&&&                   %%    ",
"            ::--      &&&&&&&&&&***&&&&                   %%    ",
"                                                                "
};
