/* XPM */
static char *_56295f99a6e44daec115354f30b60aa4swISHpmr7lco3Vu[] = {
/* columns rows colors chars-per-pixel */
"64 64 14 1 ",
"  c black",
". c #3E362F",
"X c #653705",
"o c #7C1C21",
"O c #164007",
"+ c #367C1C",
"@ c #7F5426",
"# c #574C43",
"$ c #71675F",
"% c #A26B31",
"& c #A8774F",
"* c #F6DF19",
"= c #94806F",
"- c #B48E67",
/* pixels */
"++++++++++++++++++++++++++++++++++++++++++++++++++++++++++++++++",
"++++++++++++++++++++++++++++++++++++++++++++++++++++++O+++O+++++",
"++ooo+++++++++++++++++++++++++++++++++++++++++++++++++O+++O+++++",
"+o***o++++++++++++++O+++++++++++++++++++++++++++++++O+O+O+O+++++",
"+o***o++++++++++++++++++++++++++++++++++++++++++++++O&&&&+++++++",
"+o***o++++++++++++O+++++++++++++++++++++++++++++++O+&&&&&&O+++++",
"++ooo+++++++++++++++++++++O+++O++O+++O++++++++++++O+&&&&&&O+++++",
"+++O++++++++++++++++++++++O+++O++O+++O++++++++++++O+&&&&&&O+++++",
"+++O++++++++++++++++++++++++++++++&&&&++++++++++++++++==++++++++",
"+++O+++++O+++++++++++++++++++++++&&&&&&O+O++++++++++O+==O+++++++",
"++++++++++++++++O++++++++++++++++&&&&&&O++++++++++++O+==O+++++++",
"+++++++O+++O++++++++++++++++++O++&&&&&&O++++++++++O+O+++O+O+++++",
"++++++++++++++++++++++++++++++O++O+==O++++++++++++O+++++++O+++++",
"+++++++++O++++++++++++++++++++O++O+==O+++O++++++++O+++O+++O+++++",
"+++++++++O+++++++++++++++++++++++++==++++O++++++++++++O+++++++++",
"+++++++++++O+++++++++++++++++++++++O+++O+O+O++++++++O+O+O+++++++",
"++++++++++++++++O+++++++O++++++++++O+++O+++O++++++++O+++O+++++++",
"++++++++++++++O+O+O++++++++++++++++O+O+O+++O++++++++O+++O+++++++",
"++++++++++++++O+++O++++++++++++         +O++++++++++++++++++++++",
"++++++++++++++O+++++++++++++++O         +O++++++++++++++++++++++",
"++++++++++++++++++++O+O+++++++ XX----XXX  ++++++++++++++++++++++",
"++++&&&&++++++++++++O+++O+++++ XX----XXX  ++++++++++++++++++++++",
"+++&&&&&&+++++++++++++O+++    %%%%%%%%XXXX  ++++++++++++++++++++",
"+++&&&&&&+++++++++++++O+++    %%%%%%%%XXXX  ++++++++++++++++++++",
"+++&&&&&&+++++++++++++O+  XX--XXX%%%%%%%XX  +++++++++ooo++++++++",
"+++++==++++++++++++++++ XX%%%%---XX%%%%%XX  ++++++++o***o+++O+++",
"+++++==++++++++++++++++ XX%%%%---XX%%%%%XX  ++++++++o***o+O+O+++",
"+++++==++++++++++++++++ %%%%%%%%%--%%%%%XX  ++++++++o***o+O+++++",
"+++++++++++++++++++++++ %%%%%%%%%--%%%%%XX  +++++++++ooo++++++++",
"++++++++++++++++++++   -XXXX%%%%%%%%%%%%XX  ++++++++++O+++++++++",
"++++++++++++++++++++   -XXXX%%%%%%%%%%%%XX  ++++++++++O+++++++++",
"+++O+++O+++O+++++++ XXX%----XX%%%%%%%@XX  ++++++O+++++O+++++++++",
"+++++O+O+++O+++++++ ---%%%%%--%%%%%@@@  ++++++O+O+O+O+++O+++++++",
"+++++O+++++++++++++ ---%%%%%--%%%%%@@@  ++++++O+++O+++++++O+++++",
"+++++O+++O+++++++++ ---%%%%%%%%@@@@XX ++++++++O+++O+++O+++O+++++",
"+++++++++O+++++++++ ---%%%%%%%%@@@@XX ++++++++++++++++O+++++++++",
"+++++++O+O+++++++++ ---%%%%%%%@@@@@  ++++++O++++O+++O+O+O+++++++",
"+++++++++++++++ooo+ ---%%%%%%%@@@@@  +++++++++++++++O+++O+++++++",
"++++++++++++++o***o ---%%%%%@@@@@  ++++++++++...++++O+++O+O+++++",
"+++++++++O++++o***o ---%%%%%@@@  ++++++++++##...++++++O+++O+++++",
"+++++++++O++++o***o ---%%%%%@@@  ++++++++++#$...++++++O+++O+++++",
"+++++++O+O+++++ooo++   X@@@@XX ++++++++++++#$$...+++O+O+O+++++++",
"+++++++O++++++++O+++   X@@@@XX ++++++++++++O$$..O+++O+++++++++++",
"+++++++++O++++++O++++++       ++++++++++++++++++++++++++++++++++",
"+++++++++O++++++O++++++       ++++++++++++++++++++++++++++++++++",
"+++O++++++++++++++++++++++++O++++++++++++++O++++O+++++++++++++++",
"+++O++++++++++++++++++++++++O+++++++++++++++++++O+++++++O+++++++",
"+O+O+O++++++++++O+O+++++O+O+O+O++O++++++++++++O+O+O+++++O+O+++++",
"+O+++O++++++++O+++++++++++O+++O++O++++++++++++O+++O+++++++O+++++",
"+O++++++++++++O+++++++O+++O+++O++O++++++++++++O+++++++O+++O+++++",
"++++++++++++++++++++++O+++++++++++++++++++++++++++++++O+++++++++",
"++++++++++++++++++++O+O+O+++O++++++++++O++++++++++++++O+O&&&&+++",
"++++++++++++++++++++O+++O+++O++++++++++O++++++++++++++++&&&&&&++",
"+++O+O++++++++++++O+O+++O+O+O++++++++++O+++O++++++ooo+++&&&&&&O+",
"+++++O++++++++O+++O++++++++++++++++++++++++++++++o***o++&&&&&&O+",
"++++++++++++++O+++++++++++++++++++++++&&&&++++O++o***oO+++==++O+",
"++++++++++++++++++...++++++++++++++++&&&&&&++++++o***oO+++==++++",
"++++++++++++++++##...++++++++++++++++&&&&&&+++++O+ooo+O+O+==O+++",
"++++++++++++++++#$...++++++++++++++++&&&&&&++++++++O++++O+++O+++",
"++++++++++++++++#$$...+++++++++++++++++==++++++++++O++++O+O+O+O+",
"+++++++++++++++++$$..++++++++++++++++++==++++++++++O++O+++O+++O+",
"+++++++++++++++++++++++++++++++++++++++==+++++++++O+++O+++O+++O+",
"++++++++++++++++++++++++++++++++++++++++++++++++++++++O+++++++++",
"++++++++++++++++++++++++++++++++++++++++++++++++++++++++++++++++"
};
