/* XPM */
static char *c9c88246f3244a2c8507cfb228f6fd8fNUFTBNbIvB0vdFPj[] = {
/* columns rows colors chars-per-pixel */
"64 64 12 1 ",
"  c #3A2F16",
". c #3E362F",
"X c #7C1C21",
"o c #4C3F22",
"O c #164007",
"+ c #367C1C",
"@ c #614810",
"# c #574C43",
"$ c #71675F",
"% c #A8774F",
"& c #F6DF19",
"* c #94806F",
/* pixels */
"++++++++++++++++++++++++++++++++++++++++++++++++++++++++++++++++",
"++++++++++++++++++++++++++++++++++++++++++++++++++++++O+++O+++++",
"++XXX+++++++++++++++++++++++++++++++++++++++++++++++++O+++O+++++",
"+X&&&X++++++++++++++O+++++++++++++++++++++++++++++++O+O+O+O+++++",
"+X&&&X++++++++++++++++++++++++++++++++++++++++++++++O%%%%+++++++",
"+X&&&X++++++++++++O+++++++++++++++++++++++++++++++O+%%%%%%O+++++",
"++XXX+++++++++++++++++++++O+++O++O+++O++++++++++++O+%%%%%%O+++++",
"+++O++++++++++++++++++++++O+++O++O+++O++++++++++++O+%%%%%%O+++++",
"+++O++++++++++++++++++++++++++++++%%%%++++++++++++++++**++++++++",
"+++O+++++O+++++++++++++++++++++++%%%%%%O+O++++++++++O+**O+++++++",
"++++++++++++++++O++++++++++++++++%%%%%%O++++++++++++O+**O+++++++",
"+++++++O+++O++++++++++++++++++O++%%%%%%O++++++++++O+O+++O+O+++++",
"++++++++++++++++++++++++++++++O++O+**O++++++++++++O+++++++O+++++",
"+++++++++O++++++++++++++++++++O++O+**O+++O++++++++O+++O+++O+++++",
"+++++++++O+++++++++++++++++++++++++**++++O++++++++++++O+++++++++",
"+++++++++++O+++++++++++++++++++++++O+++O+O+O++++++++O+O+O+++++++",
"++++++++++++++++O+++++++O++++XXX+++O+++O+++O++++++++O+++O+++++++",
"++++++++++++++O+O+O+++++++++X&&&X++O+O+O+++O++++++++O+++O+++++++",
"++++++++++++++O+++O+++++++++X&&&X++++O+++O++++++++++++++++++++++",
"++++++++++++++O+++++++++++++X&&&X++++O+++O++++++++++++++++++++++",
"++++++++++++++++++++O+O++++++XXX+++++++O+O++++++++++++++++++++++",
"++++%%%%++++++++++++O+++O+++++O++++++++O++++++++++++++++++++++++",
"+++%%%%%%+++++++++++++O+++++##O+++++++++++++++++++++++++++++++++",
"+++%%%%%%+++++++++++++O++++#$$O#++++O+++++++++++++++++++++++++++",
"+++%%%%%%+++++++++++++O++++#$    ++++O+++++O+++++++++XXX++++++++",
"+++++**++++++++++++++++++++#$ @@  ++++O++O++++++++++X&&&X+++O+++",
"+++++**+++++++++++O++++++++  @@@@@  ++O+O+O+++++++++X&&&X+O+O+++",
"+++++**++++++++++O+O++++++ @@@@@@@@@   +O+++++++++++X&&&X+O+++++",
"++++++++++++++++++++O+O++ @@@@@@$@@@@@@  ++++++++++++XXX++++++++",
"++++++++++++++++++++O+   @@@@@@@@@@@@@@@@ ++++++++++++O+++++++++",
"++++++++++++++++++++O @@@@@@@@@@@@$@@@@@@@ +++++++++++O+++++++++",
"+++O+++O+++O++++++++ @@@@O@@@O@@@@@@@@@@@@ +++++O+++++O+++++++++",
"+++++O+O+++O+++++++ @@@@@@O@O@O@@@@@@@@@@@@ ++O+O+O+O+++O+++++++",
"+++++O+++++++++++++ @@@@@@@OO@@@@@@@O@@@@@@@ +O+++O+++++++O+++++",
"+++++O+++O+++++++++ @@@O@@@OO@@@@@@@@@@$@@@@@ O+++O+++O+++O+++++",
"+++++++++O++++++++ o@@@@@$@@@@@@@@@@@@@@@@@@@ ++++++++O+++++++++",
"+++++++O+O+++++++  o@@@@@@@@@@@@@@@@@@@@@@@@@ ++O+++O+O+O+++++++",
"+++++++++++++++XX oooo@@@@@@@@@@O@@@@@@@@@@@oo +++++O+++O+++++++",
"++++++++++++++X&& oooooo@@@@@@@@@@@@@$@@@@oooo  ++++O+++O+O+++++",
"+++++++++O++++X& oooooooooo@@@@@@$@@@@@ooooooooo +++++O+++O+++++",
"+++++++++O++++X& oooo$oooo$ooooo@@@@@ooooooooooo +++++O+++O+++++",
"+++++++O+O+++++     ooooooooooooooooooooooooo$oo  ++O+O+O+++++++",
"+++++++O+++++++       oooooooooooooooooooooo       +O+++++++++++",
"+++++++++O++++++           oooooooooooo      $    ++++++++++++++",
"+++++++++O++++++O+           $        $         ++++++++++++++++",
"+++O+++++++++++++++++                        +++O+++++++++++++++",
"+++O++++++++++++++++++++++               +++++++O+++++++O+++++++",
"+O+O+O++++++++++O+O+++++O+O+O+O+    ++++++++++O+O+O+++++O+O+++++",
"+O+++O++++++++O+++++++++++O+++O++O++++++++++++O+++O+++++++O+++++",
"+O++++++++++++O+++++++O+++O+++O++O++++++++++++O+++++++O+++O+++++",
"++++++++++++++++++++++O+++++++++++++++++++++++++++++++O+++++++++",
"++++++++++++++++++++O+O+O+++O++++++++++O++++++++++++++O+O%%%%+++",
"++++++++++++++++++++O+++O+++O++++++++++O++++++++++++++++%%%%%%++",
"+++O+O++++++++++++O+O+++O+O+O++++++++++O+++O++++++XXX+++%%%%%%O+",
"+++++O++++++++O+++O++++++++++++++++++++++++++++++X&&&X++%%%%%%O+",
"++++++++++++++O+++++++++++++++++++++++%%%%++++O++X&&&XO+++**++O+",
"++++++++++++++++++...++++++++++++++++%%%%%%++++++X&&&XO+++**++++",
"++++++++++++++++##...++++++++++++++++%%%%%%+++++O+XXX+O+O+**O+++",
"++++++++++++++++#$...++++++++++++++++%%%%%%++++++++O++++O+++O+++",
"++++++++++++++++#$$...+++++++++++++++++**++++++++++O++++O+O+O+O+",
"+++++++++++++++++$$..++++++++++++++++++**++++++++++O++O+++O+++O+",
"+++++++++++++++++++++++++++++++++++++++**+++++++++O+++O+++O+++O+",
"++++++++++++++++++++++++++++++++++++++++++++++++++++++O+++++++++",
"++++++++++++++++++++++++++++++++++++++++++++++++++++++++++++++++"
};
