/* XPM */
static char *_bccc1ef6f5a48efbf24dce6fbc7aa19Qec8FBdujKcfCE3O[] = {
/* columns rows colors chars-per-pixel */
"64 64 13 1 ",
"  c #151913",
". c #3A2F16",
"X c #3E362F",
"o c #7C1C21",
"O c #4C3F22",
"+ c #164007",
"@ c #367C1C",
"# c #614810",
"$ c #574C43",
"% c #71675F",
"& c #A8774F",
"* c #F6DF19",
"= c #94806F",
/* pixels */
"@@@@@@@@@@@@@@@@@@@@@@@@@@@@@@@@@@@@@@@@@@@@@@@@@@@@@@@@@@@@@@@@",
"@@@@@@@@@@@@@@@@@@@@@@@@@@@@@@@@@@@@@@@@@@@@@@@@@@@@@@+@@@+@@@@@",
"@@ooo@@@@@@@@@@@@@@@@@@@@@@@@@@@@@@@@@@@@@@@@@@@@@@@@@+@@@+@@@@@",
"@o***o@@@@@@@@@@@@@@+@@@@@@@@@@@@@@@@@@@@@@@@@@@@@@@+@+@+@+@@@@@",
"@o***o@@@@@@@@@@@@@@@@@@@@@@@@@@@@@@@@@@@@@@@@@@@@@@+&&&&@@@@@@@",
"@o***o@@@@@@@@@@@@+@@@@@@@@@@@@@@@@@@@@@@@@@@@@@@@+@&&&&&&+@@@@@",
"@@ooo@@@@@@@@@@@@@@@@@@@@@+@@@+@@+@@@+@@@@@@@@@@@@+@&&&&&&+@@@@@",
"@@@+@@@@@@@@@@@@@@@@@@@@@@+@@@+@@+@@@+@@@@@@@@@@@@+@&&&&&&+@@@@@",
"@@@+@@@@@@@@@@@@@@@@@@@@@@@@@@@@@@&&&&@@@@@@@@@@@@@@@@==@@@@@@@@",
"@@@+@@@@@+@@@@@@@@@@@@@@@@@@@@@@@&&&&&&+@+@@@@@@@@@@+@==+@@@@@@@",
"@@@@@@@@@@@@@@@@+@@@@@@@@@@@@@@@@&&&&&&+@@@@@@@@@@@@+@==+@@@@@@@",
"@@@@@@@+@@@+@@@@@@@@@@@@@@@@@@+@@&&&&&&+@@@@@@@@@@+@+@@@+@+@@@@@",
"@@@@@@@@@@@@@@@@@@@@@@@@@@@@@@+@@+@==+@@@@@@@@@@@@+@@@@@@@+@@@@@",
"@@@@@@@@@+@@@@@@@@@@@@@@@@@@@@+@@+@==+@@@+@@@@@@@@+@@@+@@@+@@@@@",
"@@@@@@@@@+@@@@@@@@@@@@@@@@@@@@@@@@@==@@@@+@@@@@@@@@@@@+@@@@@@@@@",
"@@@@@@@@@@@+@@@@@@@@@@@@@@@@@@@@@@@+@@@+@+@+@@@@@@@@+@+@+@@@@@@@",
"@@@@@@@@@@@@@@@@+@@@@@@@+@@@@@@@@@@+@@@+@@@+@@@@@@@@+@@@+@@@@@@@",
"@@@@@@@@@@@@@@+@+@+@@@@@@@@@@@@@@@@+@+@+@@@+@@@@@@@@+@@@+@@@@@@@",
"@@@@@@@@@@@@@@+@@@+@@@@@@@@@@@@@@@@@@+@@@+@@@@@@@@@@@@@@@@@@@@@@",
"@@@@@@@@@@@@@@+@@@@@@@@@@@@@@@+@@@@@@+@@@+@@@@@@@@@@@@@@@@@@@@@@",
"@@@@@@@@@@@@@@@@@@@@+@+@@@@@@@@@@@@@@@@+@+@@@@@@@@@@@@@@@@@@@@@@",
"@@@@&&&&@@@@@@@@@@@@+@@@+@@@@@@@@@@@@@@+@@@@@@@@@@@@@@@@@@@@@@@@",
"@@@&&&&&&@@@@@@@@@@@@@+@@@@@@XXX@@@@@@@@@@@@@@@@@@@@@@@@@@@@@@@@",
"@@@&&&&&&@@@@@@@@@@@@@+@@@@$$XXX@@@@@@@@@@@@@@@@@@@@@@@@@@@@@@@@",
"@@@&&&&&&@@@@@@@@@@@@@+@@@@$%XXX@@@@@@@@@@@+@@@@@@@@@ooo@@@@@@@@",
"@@@@@==@@@@@@@@@@@@@@@@@@@@$%%XXX@@@@@@@@@@@@@@@@@@@o***o@@@+@@@",
"@@@@@==@@@@@@@@@@@@@@@@@@@@@%%XX@@@@@@@@@@@@@@@@@@@@o***o@+@+@@@",
"@@@@@==@@@@@@@@@@@@@@@@@@@@@@@@@@@@@@@@@@@@@@@@@@@@@o***o@+@@@@@",
"@@@@@@@@@@@@@@@@@@@@@@@@@ooo@@@@@@@@@@@@@@@@@@@@@@@@@ooo@@@@@@@@",
"@@@@@@@@@@@@@@@@@@@@@@@@o***o@@@@@@@@@@@@@@@@@@@@@@@@@+@@@@@@@@@",
"@@@@@@@@@@@@@@@@@@@@@@@@o***o@@@@@@@@@@@@@@@@@@@@@@@@@+@@@@@@@@@",
"@@@+@@@+@@@+@@@@@@@@@@@@o***o@@@@@@@@@@@@@@@@@@@+@@@@@+@@@@@@@@@",
"@@@@@+@+@@@+@@@@@@@@@@@@@ooo@@@@@@@@@@@@@@@@@@+@+@+@+@@@+@@@@@@@",
"@@@@@+@@@@@@@@@@@.@@@@@@@@+@@@@@@@@@@@@@.@@@@@+@@@+@@@@@@@+@@@@@",
"@@@@@+@@@+@@@.@@.#.@@@@@@@+@@@@@@@@@@@@@..@@@@+@@@+@@@.@@@+@@@@@",
"@@@@@@@@@+...#..##.@@@@@@@+@@@@@@@@@@@@..#.@@@@@@@@@@.....@@@@@@",
"@@@@@@@+@+.######$#.@@@@@@@@@@@@@@@@@@.###..@@@@+@@@.###...@@@@@",
"@@@@@@@@..##$$######.@.......@@@.............@@@@@.########.@@@@",
"@@@@@@@.##$###........      .....           .XXX@.#########..@@@",
"@@@@@@@.####$.                                   ############.@@",
"@@@@@@@.%O#OO.                                  .OO#########O.@@",
"@@@@@@@+.....                                  .OO%O%OO##OOOOO.@",
"@@@@@@@+@@@@.                                   .OOOOOOOOOOOOO.@",
"@@@@@@@@@+@@.....                         ....................@@",
"@@@@@@@@@+@@@@@@.....            ..........##.@@@@@@@@@.@@@@@@@@",
"@@@+@@@@@@@@@@@@@@@....................@@@..#.@@+@@@@@@@@@@@@@@@",
"@@@+@@@@@@@@@@@@@@@@@..@@@@@+@@@@@@@@..@@@@.....+@@@@@@@+@@@@@@@",
"@+@+@+@@@@@@@@@@+@+@@@@@+@+@+@+@@+@@@@@@@@@@@@+@+@+@@@@@+@+@@@@@",
"@+@@@+@@@@@@@@+@@@@@@@@@@@+@@@+@@+@@@@@@@@@@@@+@@@+@@@@@@@+@@@@@",
"@+@@@@@@@@@@@@+@@@@@@@+@@@+@@@+@@+@@@@@@@@@@@@+@@@@@@@+@@@+@@@@@",
"@@@@@@@@@@@@@@@@@@@@@@+@@@@@@@@@@@@@@@@@@@@@@@@@@@@@@@+@@@@@@@@@",
"@@@@@@@@@@@@@@@@@@@@+@+@+@@@+@@@@@@@@@@+@@@@@@@@@@@@@@+@+&&&&@@@",
"@@@@@@@@@@@@@@@@@@@@+@@@+@@@+@@@@@@@@@@+@@@@@@@@@@@@@@@@&&&&&&@@",
"@@@+@+@@@@@@@@@@@@+@+@@@+@+@+@@@@@@@@@@+@@@+@@@@@@ooo@@@&&&&&&+@",
"@@@@@+@@@@@@@@+@@@+@@@@@@@@@@@@@@@@@@@@@@@@@@@@@@o***o@@&&&&&&+@",
"@@@@@@@@@@@@@@+@@@@@@@@@@@@@@@@@@@@@@@&&&&@@@@+@@o***o+@@@==@@+@",
"@@@@@@@@@@@@@@@@@@XXX@@@@@@@@@@@@@@@@&&&&&&@@@@@@o***o+@@@==@@@@",
"@@@@@@@@@@@@@@@@$$XXX@@@@@@@@@@@@@@@@&&&&&&@@@@@+@ooo@+@+@==+@@@",
"@@@@@@@@@@@@@@@@$%XXX@@@@@@@@@@@@@@@@&&&&&&@@@@@@@@+@@@@+@@@+@@@",
"@@@@@@@@@@@@@@@@$%%XXX@@@@@@@@@@@@@@@@@==@@@@@@@@@@+@@@@+@+@+@+@",
"@@@@@@@@@@@@@@@@@%%XX@@@@@@@@@@@@@@@@@@==@@@@@@@@@@+@@+@@@+@@@+@",
"@@@@@@@@@@@@@@@@@@@@@@@@@@@@@@@@@@@@@@@==@@@@@@@@@+@@@+@@@+@@@+@",
"@@@@@@@@@@@@@@@@@@@@@@@@@@@@@@@@@@@@@@@@@@@@@@@@@@@@@@+@@@@@@@@@",
"@@@@@@@@@@@@@@@@@@@@@@@@@@@@@@@@@@@@@@@@@@@@@@@@@@@@@@@@@@@@@@@@"
};
