/* XPM */
static char *_f627dcd1f574470aa4acb461cd0a629DRLrxlREsiQkQ6Fs[] = {
/* columns rows colors chars-per-pixel */
"64 64 132 2 ",
"   c #020200",
".  c #0E0D0A",
"X  c #1F1E1C",
"o  c #1D231D",
"O  c #21211F",
"+  c #1F2420",
"@  c #252624",
"#  c #2B2623",
"$  c #252924",
"%  c #292927",
"&  c #262628",
"*  c #292728",
"=  c #262A2B",
"-  c #292B29",
";  c #312D2A",
":  c #2F312E",
">  c #31312F",
",  c #3A362B",
"<  c #2E2F31",
"1  c #312F32",
"2  c #353534",
"3  c #3A3734",
"4  c #3A3935",
"5  c #3D3D3C",
"6  c #7C1C21",
"7  c #7A2023",
"8  c #164007",
"9  c #367C1C",
"0  c #3E403D",
"q  c #377723",
"w  c #387626",
"e  c #377822",
"r  c #3A722C",
"t  c #41403E",
"y  c #4B443A",
"u  c #4F493D",
"i  c #3F3F41",
"p  c #3F4140",
"a  c #414140",
"s  c #484743",
"d  c #494946",
"f  c #464648",
"g  c #4E4D4A",
"h  c #514D42",
"j  c #504F4B",
"k  c #59544B",
"l  c #595752",
"z  c #5D5A54",
"x  c #5F5E59",
"c  c #625E56",
"v  c #635E58",
"b  c #5F605A",
"n  c #646056",
"m  c #686157",
"M  c #636059",
"N  c #68645D",
"B  c #6E6B64",
"V  c #726C65",
"C  c #73716C",
"Z  c #787469",
"A  c #7E7A71",
"S  c #82373B",
"D  c #893A3F",
"F  c #8C4247",
"G  c #8D464C",
"H  c #90464D",
"J  c #9A454A",
"K  c #A1744E",
"L  c #A8774F",
"P  c #BF6162",
"I  c #AE7675",
"U  c #B17A77",
"Y  c #C35F5D",
"T  c #C5615F",
"R  c #C45F63",
"E  c #C56363",
"W  c #CA6263",
"Q  c #C76866",
"!  c #D06668",
"~  c #F6DF19",
"^  c #94806F",
"/  c #8B8577",
"(  c #8C847D",
")  c #8E8A7C",
"_  c #938C7F",
"`  c #97927F",
"'  c #C2817F",
"]  c #C27C84",
"[  c #958E82",
"{  c #969083",
"}  c #999284",
"|  c #9A968B",
" . c #A29B8E",
".. c #A7A49D",
"X. c #ACA99F",
"o. c #ACA9A0",
"O. c #B7B5A9",
"+. c #C8C4BB",
"@. c #CECCBD",
"#. c #D1C8B7",
"$. c #D2CFBE",
"%. c #D5D1BF",
"&. c #D3CEC2",
"*. c #D5D1C4",
"=. c #DBD5C5",
"-. c #DED9C6",
";. c #DDD7CA",
":. c #DED8C8",
">. c #DFD8C8",
",. c #DDDAC9",
"<. c #DED9CD",
"1. c #E1D6C6",
"2. c #E0DBC7",
"3. c #E1D7C9",
"4. c #E0DBC8",
"5. c #E1DBCB",
"6. c #E2DCCB",
"7. c #E4DFCB",
"8. c #E4DECD",
"9. c #E2DED1",
"0. c #E5DFD3",
"q. c #E1DDD4",
"w. c #E5E1D3",
"e. c #E9E2D0",
"r. c #E7E5D9",
"t. c #EDEADB",
"y. c #F0E8D3",
"u. c #F2EFE0",
"i. c #FCF6E6",
"p. c #FBF9ED",
"a. c #FCF8EC",
"s. c #FFFEF4",
/* pixels */
"9 9 9 9 9 9 9 9 9 9 9 9 9 9 9 9 9 9 9 9 9 9 9 9 9 9 9 9 9 9 9 9 9 9 9 - - - - - - - 9 9 9 9 9 9 9 9 9 9 9 9 9 9 9 9 9 9 9 9 9 9 ",
"9 9 9 9 9 9 9 9 9 9 9 9 9 9 9 9 9 9 9 9 9 9 9 9 9 9 9 9 9 9 9 9 9 9 9 - - - - - - - 9 9 9 9 9 9 9 9 9 9 9 9 8 9 9 9 8 9 9 9 9 9 ",
"9 9 6 6 6 9 9 9 9 9 9 9 9 9 9 9 9 9 9 9 9 9 9 9 9 9 9 9 9 9 9 9 9 9 9 - - - - - - - - - - 9 9 9 9 9 9 9 9 9 8 9 9 9 8 9 9 9 9 9 ",
"9 6 ~ ~ ~ 6 9 9 9 9 9 9 9 9 9 9 9 9 9 9 8 9 9 9 9 9 9 9 9 9 9 9 9 9 9 - - - 5 5 5 5 - - - 9 9 9 9 9 9 9 8 9 8 9 8 9 8 9 9 9 9 9 ",
"9 6 ~ ~ ~ 6 9 9 9 9 9 9 9 9 9 9 9 9 9 9 9 9 9 9 9 9 9 9 9 9 9 9 9 9 9 - - - 5 5 5 5 - - - w 9 9 9 9 9 9 8 L L L L 9 9 9 9 9 9 9 ",
"9 6 ~ ~ ~ 6 9 9 9 9 9 9 9 9 9 9 9 9 8 9 9 9 9 9 - - - - - - - - - - - - - - 5 5 5 5 4 4 - - - 9 9 9 8 9 L L L L L L 8 9 9 9 9 9 ",
"9 9 6 6 6 9 9 9 9 9 9 9 9 9 9 9 9 9 9 9 9 9 9 - - - - - - - - - - - - - - - 5 5 5 5 5 5 - - - 9 9 9 8 9 L L L L L L 8 9 9 9 9 9 ",
"9 9 9 8 9 9 9 9 9 9 9 9 9 9 9 9 9 9 9 - - - - - - - - - - - - - - - - - - - - - - - - - - - - 9 9 9 8 9 L L L L L L 8 9 9 9 9 9 ",
"9 9 9 8 9 9 9 9 9 9 9 9 9 9 9 9 9 9 9 - - - - - - - a a a a a a a a a t 5 5 - - - - - - - - - 9 9 9 9 9 9 9 ^ ^ 9 9 9 9 9 9 9 9 ",
"9 9 9 8 9 9 9 9 9 8 9 9 9 9 9 - - - - - - - - g a a a p a a a a a a a a a 5 f f f f 4 - - - - - - 9 9 9 8 9 ^ ^ 8 9 9 9 9 9 9 9 ",
"9 9 9 9 9 9 9 9 9 9 9 9 9 9 9 - - - - - - a a a a a a p a a a a a a a a a a a a a 5 4 - - - - - - r 9 9 8 9 ^ ^ 8 9 9 9 9 9 9 9 ",
"9 9 9 9 9 9 9 8 9 9 9 8 9 - - - - - - 5 5 z x x M x x b x x x M x x x x x v v v b M l a a a - - - - - 9 8 9 9 9 8 9 8 9 9 9 9 9 ",
"9 9 9 9 9 9 9 9 9 9 9 9 9 - - - 5 5 5 5 5 x v v v v v v v v v v v v v v v v v v v v z 5 0 5 5 5 - - - 9 9 9 9 9 9 9 8 9 9 9 9 9 ",
"9 9 9 9 9 9 9 9 9 8 9 9 9 - - - 5 5 5 4 5 x c c c c c c c c v v c c c c c c c c c c z 5 5 i 5 5 - - - r 9 9 8 9 9 9 8 9 9 9 9 9 ",
"9 9 9 9 9 9 9 9 9 8 - - - 5 5 5 5 5 5 c c M v v v v v v v v v v v v v v v v v v v v M n N 5 5 5 a 5 a - - - 8 9 9 9 9 9 9 9 9 9 ",
"9 9 9 9 9 9 9 9 9 q - - - 5 5 5 5 4 5 v v v M M M M M M M M M M M M M M M M M M M v v c n 5 5 i a a a - - - 8 9 8 9 9 9 9 9 9 9 ",
"9 9 9 9 9 9 9 9 - - - - - i 5 i 5 - - c M M M M M M M v v M M M M M M M M M M M M M v v n - - i 5 5 a - - - - - 8 9 9 9 9 9 9 9 ",
"9 9 9 9 9 9 9 9 - - - a a a a a 5 - - n M M M M M M M M M M M M M M M M M M M M M M M c n - - 5 a 5 a a a - - - 8 9 9 9 9 9 9 9 ",
"9 9 9 9 9 9 9 9 - - - a a a a - - - - n M M M M M M M M M M M M M M M M M M M M M M M c n - - - - 5 a a a - - - 9 9 9 9 9 9 9 9 ",
"9 9 9 9 9 9 9 9 - - - a a a 5 - - - - x M M M M M M M M M M M M M M M M M M M M M v v v n - - - - a 0 a 0 - - - 9 9 9 9 9 9 9 9 ",
"9 9 9 9 9 9 9 9 - - - a a a 5 - - v z c M M M M M M M M M M v M M M M M M M M M M M M n n z v - - a 5 5 a - - - 9 9 9 9 9 9 9 9 ",
"9 9 9 9 L L L L - - - a 5 5 5 % % v c M v v v v v M M M M M M M M M M v v v v v M M M M M v c - - a i 5 a - - - 9 9 9 9 9 9 9 9 ",
"9 9 9 L L L L L - - - a a a 5 - @ v c M v N M M M v c c c M M M M M M n c c c c v N v M M v z - - a a a 5 - - - 9 9 9 9 9 9 9 9 ",
"9 9 9 L L L L L - - - 0 5 5 5 - @ v v v M k [ [ [ [ [ [ v M M M M M M n { [ [ [ [ _ M v v v c - - a 5 5 5 - - - 9 9 9 9 9 9 9 9 ",
"9 9 9 L L L L L - - - 0 0 0 5 - @ v c v v k [ [ [ [ [ _ v M M M M M M n { [ [ [ [ [ v v v v c - - a 5 5 5 - - - 9 9 9 9 9 9 9 9 ",
"9 9 9 9 9 ^ ^ 9 - - - 0 0 0 5 - % c c q.0.4.4.4.4.4.=.>.v v M M M M M n ;.>.=.=.>.4.0.*.9.v c - - a 5 5 5 - - - 6 9 9 9 8 9 9 9 ",
"9 9 9 9 9 ^ ^ 9 - - - 5 0 0 5 % % v c 4.;.-.-.-.-.-.>.4.c v M M M M M N 4.>.-.>.-.-.>.>.8.c c - - a 5 5 a - - - 6 9 8 9 8 9 9 9 ",
"9 9 9 9 9 ^ ^ 9 - - - - 5 & @ % - v c >.-.w.O.| Z B =.=.c M M M M M M M 4.=.+.>.r.w.i.>.8.N z - - - @ 5 a - - - 6 9 8 9 9 9 9 9 ",
"9 9 9 9 9 9 9 9 - - - - a - - - - n v 6.-.t.- - - = =.*.c M M M M M M M >.>.- - - % a.2.8.z z - - - - 5 p - - - 9 9 9 9 9 9 9 9 ",
"9 9 9 9 9 9 9 9 - - - - a - - - - u y >.-.t.- - - = =.%.v M M M M M M M >.>.- - - % p.2.7., 4 - - - - 5 f - - - 9 9 9 9 9 9 9 9 ",
"9 9 9 9 9 9 9 9 9 e o - - - - - @ =.=.>.-.u.- - - & *.=.v M M M M M M M >.>.- - - @ p.-.2.-.*.5 5 - - - - o 8 9 9 9 9 9 9 9 9 9 ",
"9 9 9 8 9 9 9 8 9 9 o - @ - - - @ -.-.-.-.u.> > > 2 @.*.c c n n n n n n *.&.> > : : s.-.-.-.-.4 5 - % % - O 8 9 9 9 9 9 9 9 9 9 ",
"9 9 9 9 9 8 9 8 9 9 9 8 9 % - 5 4 -.-.-.-.4.>.>.4.4.{ { _ [ [ [ [ [ [ [ [ } 4.4.4.4.>.-.>.-.%.- @ 5 5 % - O 9 9 8 9 9 9 9 9 9 9 ",
"9 9 9 9 9 8 9 9 9 9 9 9 9 - - 5 d =.<.y.-.-.-.-.-.-.} [ [ [ [ [ [ [ [ [ [ _ >.-.-.-.-.4.4.>.*.- @ 5 5 - - O 9 9 9 9 8 9 9 9 9 9 ",
"9 9 9 9 9 8 9 9 9 8 9 9 9 - - 5 a - - 9.-.-.-.-.-.-.} [ [ [ [ [ [ [ [ [ [ _ >.-.-.-.-.4.4.2 5 - @ 5 4 % - O 8 9 9 9 8 9 9 9 9 9 ",
"9 9 9 9 9 9 9 9 9 8 9 9 9 - - 5 5 - - %.-.-.-.-.-.-.{ [ [ [ [ [ [ [ [ [ [ { >.-.-.-.-.-.-.& - - % 5 4 % - O 8 9 9 9 9 9 9 9 9 9 ",
"9 9 9 9 9 9 9 8 9 8 9 9 9 - - 5 5 - - ;.-.-.-.-.-.-.{ [ 1 % * * - = = * ( [ >.-.-.-.-.-.-.- - 2 2 5 5 % - O 8 9 8 9 9 9 9 9 9 9 ",
"9 9 9 9 9 9 9 9 9 9 9 9 9 - - t 5 - - 4.-.-.-.-.-.-.} { - - - - - - - - ) _ >.-.-.-.-.4.4.- - 5 5 5 5 % - O 9 9 8 9 9 9 9 9 9 9 ",
"9 9 9 9 9 9 9 9 9 9 9 9 9 - - a a - - *.$.<.-.-.-.-.}  .@ - - - - - - - [ ` -.-.-.-.;.*.*.- % 5 5 5 5 - - O 9 9 8 9 8 9 9 9 9 9 ",
"9 9 9 9 9 9 9 9 9 8 9 9 9 - - a 5 i i - - - -.-.-.-.-.=.% - - - - - - - <.-.-.-.-.4.  - - - - ; - 5 5 - - O 8 9 9 9 8 9 9 9 9 9 ",
"9 9 9 9 9 9 9 9 9 8 9 9 9 - - a 5 5 5 - - ; -.-.-.-.-.8.% - - - - - - - <.-.-.-.-.4.  - - - - z z 3 5 - - O 8 9 9 9 8 9 9 9 9 9 ",
"9 9 9 9 9 9 9 8 9 8 9 9 9 - - 5 a a a @ - > -.-.-.-.-.#.=.>.V - - 5 >.>.e.-.-.-.-.4.  - - l z z c 5 5 - - O o 9 8 9 9 9 9 9 9 9 ",
"9 9 9 9 9 9 9 8 9 9 9 9 9 - - a a a a - % > -.-.>.-.1.3.3.1.A & @ 3 7.>.>.-.-.-.-.-.  % @ n c c c 5 5 - - O 9 9 9 9 9 9 9 9 9 9 ",
"9 9 9 9 9 9 9 9 9 8 9 9 9 - - v N t t t 5 t - - - - E W W W S G H F ! W W ! - - - - d c z c c c c 5 5 - - o 9 9 9 9 9 9 9 9 9 9 ",
"9 9 9 9 9 9 9 9 9 8 9 9 9 - - c v t t 5 5 s - - - & T W W W S G G G W W W E - = - % 4 c c v v v z 5 4 % - o 9 9 9 9 9 9 9 9 9 9 ",
"9 9 9 8 9 9 9 9 9 9 9 9 9 - - c c g g j g d - - - & E E E E S G G G W W E E - - 4 4 t c c v v v c - @ 9 9 9 9 9 9 9 9 9 9 9 9 9 ",
"9 9 9 8 9 9 9 9 9 9 9 9 9 - - c c c c c c c 5 5 - & Q E W W D G G G Y E W E - = C c v v v v v v c - - 9 9 9 9 9 8 9 9 9 9 9 9 9 ",
"9 8 9 8 9 8 9 9 9 9 9 9 9 - - c c c c v v c 5 5 @ & ' I W E J F F H R P U ] - - C c k h h N v v c - - 9 9 9 9 9 8 9 8 9 9 9 9 9 ",
"9 8 9 9 9 8 9 9 9 9 9 9 9 - - c v v v v c M 5 5 4 4 - = E W E W E E E Q = - - - C c m { { c c v v - - 9 9 9 9 9 9 9 8 9 9 9 9 9 ",
"9 8 9 9 9 9 9 9 9 9 9 9 9 - - N n M M M n N 5 5 5 4 - @ R W E E E E E Q = % - - C n V { { c v c z - - 9 9 9 8 9 9 9 8 9 9 9 9 9 ",
"9 9 9 9 9 9 9 9 9 9 9 9 9 - - 5 5 M M M n n n v # - 5 f $ - - % - - - - s d - - ..[ _ { { _ [ [ _ % - 9 9 9 8 9 9 9 9 9 9 9 9 9 ",
"9 9 9 9 9 9 9 9 9 9 9 9 9 - - 5 5 v v n M M v c - - 5 5 - - - - - - - - a s - - o.[ [ { { [ [ _ [ = - 9 9 9 8 9 8 L L L L 9 9 9 ",
"9 9 9 9 9 9 9 9 9 9 9 9 9 9 9 & * v v | { | n v - - 9 9 8 9 9 9 9 9 9 9 9 9 - - X.[ [ [ [ [ ) - % 9 9 9 9 9 9 9 L L L L L L 9 9 ",
"9 9 9 8 9 8 9 9 9 9 9 9 9 9 9 - - v v } { [ v c @ - 8 9 8 9 9 9 9 9 9 9 9 9 - - X._ [ _ [ _ / - % 9 6 6 6 9 9 9 L L L L L L 8 9 ",
"9 9 9 9 9 8 9 9 9 9 9 9 9 9 8 - @ v v { {  .{ } - - 9 9 9 9 9 9 9 9 9 9 9 9 - - X   # [ [ _ _ - % 6 ~ ~ ~ 6 9 9 L L L L L L 8 9 ",
"9 9 9 9 9 9 9 9 9 9 9 9 9 9 8 - @ v c { { [ } } < - 9 9 9 9 9 9 9 9 9 9 9 e - - - % # [ [ [ _ - % 6 ~ ~ ~ 6 8 9 9 9 ^ ^ 9 9 8 9 ",
"9 9 9 9 9 9 9 9 9 9 9 9 9 9 9 - @ n m } { } } } = - e e 9 9 9 9 9 9 9 9 9 K o + % - # [ [ [ ( O $ 7 ~ ~ ~ 6 8 9 9 9 ^ ^ 9 9 9 9 ",
"9 9 9 9 9 9 9 9 9 9 9 9 9 9 9 % @ =.-.8.>.>.>.=.- - 9 9 9 9 9 9 9 9 9 9 9 L L L @ - & & $ & @ 9 8 9 6 6 6 9 8 9 8 9 ^ ^ 8 9 9 9 ",
"9 9 9 9 9 9 9 9 9 9 9 9 9 9 9 - & =.>.-.-.>.>.*.@ - 9 9 9 9 9 9 9 9 9 9 9 L L L $ % - - - & 2 9 9 9 9 8 9 9 9 9 8 9 9 9 8 9 9 9 ",
"9 9 9 9 9 9 9 9 9 9 9 9 9 9 9 - @ >.-.@.&.>.>.@.- - e 9 9 9 9 9 9 9 9 9 9 9 9 ^ ^ 9 9 9 9 9 9 9 9 9 9 8 9 9 9 9 8 9 8 9 8 9 8 9 ",
"9 9 9 9 9 9 9 9 9 9 9 9 9 9 9 - % -.-.& - . >.&.- - w 9 9 9 9 9 9 9 9 9 9 9 9 ^ ^ 9 9 9 9 9 9 9 9 9 9 8 9 9 8 9 9 9 8 9 9 9 8 9 ",
"9 9 9 9 9 9 9 9 9 9 9 9 9 9 9 - % -.>.# - . -.&.- % 9 9 9 9 9 9 9 9 9 9 9 9 9 ^ ^ 9 9 9 9 9 9 9 9 9 8 9 9 9 8 9 9 9 8 9 9 9 8 9 ",
"9 9 9 9 9 9 9 9 9 9 9 9 9 9 9 9 9 @ @ : - - - & 9 9 9 9 9 9 9 9 9 9 9 9 9 9 9 9 9 9 9 9 9 9 9 9 9 9 9 9 9 9 8 9 9 9 9 9 9 9 9 9 ",
"9 9 9 9 9 9 9 9 9 9 9 9 9 9 9 9 9 - - - - - - - 9 9 9 9 9 w 9 9 9 9 9 9 9 9 9 9 9 9 9 9 9 9 9 9 9 9 9 9 9 9 9 9 9 9 9 9 9 9 9 9 "
};
